<svg width="647" height="22" viewBox="0 0 647 22" fill="none" xmlns="http://www.w3.org/2000/svg">
<path d="M7 6.004V7.124H2.618V16H1.358V6.004H7ZM13.4098 16H12.1638V9.518H9.95181C9.85848 10.7033 9.74181 11.716 9.60181 12.556C9.46181 13.3867 9.28448 14.0633 9.06981 14.586C8.85515 15.1087 8.59848 15.4913 8.29981 15.734C8.00115 15.9767 7.65115 16.098 7.24981 16.098C7.12848 16.098 7.00715 16.0887 6.88581 16.07C6.77381 16.0607 6.68048 16.0373 6.60581 16V15.076C6.66181 15.0947 6.72248 15.1087 6.78781 15.118C6.85315 15.1273 6.91848 15.132 6.98381 15.132C7.18915 15.132 7.37581 15.048 7.54381 14.88C7.71181 14.712 7.86115 14.4553 7.99181 14.11C8.13181 13.7647 8.25781 13.3307 8.36981 12.808C8.48181 12.276 8.57981 11.6507 8.66381 10.932C8.74781 10.2133 8.82248 9.40133 8.88781 8.496H13.4098V16ZM18.6336 8.37C19.5482 8.37 20.2249 8.57067 20.6636 8.972C21.1022 9.37333 21.3216 10.0127 21.3216 10.89V16H20.4256L20.1876 14.936H20.1316C19.9169 15.2067 19.6929 15.4353 19.4596 15.622C19.2356 15.7993 18.9742 15.93 18.6756 16.014C18.3862 16.098 18.0316 16.14 17.6116 16.14C17.1636 16.14 16.7576 16.0607 16.3936 15.902C16.0389 15.7433 15.7589 15.5007 15.5536 15.174C15.3482 14.838 15.2456 14.418 15.2456 13.914C15.2456 13.1673 15.5396 12.5933 16.1276 12.192C16.7156 11.7813 17.6209 11.5573 18.8436 11.52L20.1176 11.478V11.03C20.1176 10.4047 19.9822 9.97067 19.7116 9.728C19.4409 9.48533 19.0582 9.364 18.5636 9.364C18.1716 9.364 17.7982 9.42467 17.4436 9.546C17.0889 9.658 16.7576 9.78867 16.4496 9.938L16.0716 9.014C16.3982 8.83667 16.7856 8.68733 17.2336 8.566C17.6816 8.43533 18.1482 8.37 18.6336 8.37ZM18.9976 12.374C18.0642 12.4113 17.4156 12.5607 17.0516 12.822C16.6969 13.0833 16.5196 13.452 16.5196 13.928C16.5196 14.348 16.6456 14.656 16.8976 14.852C17.1589 15.048 17.4902 15.146 17.8916 15.146C18.5262 15.146 19.0536 14.9733 19.4736 14.628C19.8936 14.2733 20.1036 13.732 20.1036 13.004V12.332L18.9976 12.374ZM29.6732 10.386C29.6732 10.8527 29.5332 11.2167 29.2532 11.478C28.9732 11.7393 28.6139 11.9167 28.1752 12.01V12.066C28.6419 12.1313 29.0479 12.2993 29.3932 12.57C29.7386 12.8313 29.9112 13.242 29.9112 13.802C29.9112 14.1193 29.8506 14.4133 29.7292 14.684C29.6172 14.9547 29.4399 15.188 29.1972 15.384C28.9546 15.58 28.6419 15.734 28.2592 15.846C27.8766 15.9487 27.4146 16 26.8732 16H23.6392V8.496H26.8592C27.3912 8.496 27.8672 8.55667 28.2872 8.678C28.7166 8.79 29.0526 8.986 29.2952 9.266C29.5472 9.53667 29.6732 9.91 29.6732 10.386ZM28.6372 13.802C28.6372 13.3727 28.4739 13.0647 28.1472 12.878C27.8206 12.6913 27.3399 12.598 26.7052 12.598H24.8712V15.006H26.7332C27.3492 15.006 27.8206 14.9173 28.1472 14.74C28.4739 14.5533 28.6372 14.2407 28.6372 13.802ZM28.4272 10.54C28.4272 10.1853 28.2966 9.92867 28.0352 9.77C27.7832 9.602 27.3679 9.518 26.7892 9.518H24.8712V11.576H26.5652C27.1719 11.576 27.6339 11.492 27.9512 11.324C28.2686 11.156 28.4272 10.8947 28.4272 10.54ZM32.9376 8.496V11.618H37.0116V8.496H38.2436V16H37.0116V12.654H32.9376V16H31.7056V8.496H32.9376ZM43.4617 8.37C44.3764 8.37 45.053 8.57067 45.4917 8.972C45.9304 9.37333 46.1497 10.0127 46.1497 10.89V16H45.2537L45.0157 14.936H44.9597C44.745 15.2067 44.521 15.4353 44.2877 15.622C44.0637 15.7993 43.8024 15.93 43.5037 16.014C43.2144 16.098 42.8597 16.14 42.4397 16.14C41.9917 16.14 41.5857 16.0607 41.2217 15.902C40.867 15.7433 40.587 15.5007 40.3817 15.174C40.1764 14.838 40.0737 14.418 40.0737 13.914C40.0737 13.1673 40.3677 12.5933 40.9557 12.192C41.5437 11.7813 42.449 11.5573 43.6717 11.52L44.9457 11.478V11.03C44.9457 10.4047 44.8104 9.97067 44.5397 9.728C44.269 9.48533 43.8864 9.364 43.3917 9.364C42.9997 9.364 42.6264 9.42467 42.2717 9.546C41.917 9.658 41.5857 9.78867 41.2777 9.938L40.8997 9.014C41.2264 8.83667 41.6137 8.68733 42.0617 8.566C42.5097 8.43533 42.9764 8.37 43.4617 8.37ZM43.8257 12.374C42.8924 12.4113 42.2437 12.5607 41.8797 12.822C41.525 13.0833 41.3477 13.452 41.3477 13.928C41.3477 14.348 41.4737 14.656 41.7257 14.852C41.987 15.048 42.3184 15.146 42.7197 15.146C43.3544 15.146 43.8817 14.9733 44.3017 14.628C44.7217 14.2733 44.9317 13.732 44.9317 13.004V12.332L43.8257 12.374ZM48.9293 16H47.5013L49.6433 12.85C49.354 12.7753 49.074 12.6587 48.8033 12.5C48.5327 12.332 48.3133 12.1033 48.1453 11.814C47.9773 11.5153 47.8933 11.1467 47.8933 10.708C47.8933 9.98933 48.136 9.44333 48.6213 9.07C49.1067 8.68733 49.7507 8.496 50.5533 8.496H53.9133V16H52.6813V13.018H50.8613L48.9293 16ZM49.0833 10.722C49.0833 11.1513 49.242 11.4733 49.5593 11.688C49.886 11.8933 50.3387 11.996 50.9173 11.996H52.6813V9.518H50.6793C50.11 9.518 49.6993 9.63 49.4473 9.854C49.2047 10.078 49.0833 10.3673 49.0833 10.722Z" fill="white"/>
<path d="M66.56 12.794V11.702H79.44V12.794H66.56Z" fill="white"/>
<path d="M91.358 16V6.004H97.294V7.11H92.618V10.232H94.102C95.1007 10.232 95.8753 10.358 96.426 10.61C96.9767 10.8527 97.3593 11.1887 97.574 11.618C97.7887 12.038 97.896 12.5233 97.896 13.074C97.896 13.6807 97.7747 14.2033 97.532 14.642C97.2987 15.0807 96.916 15.4167 96.384 15.65C95.852 15.8833 95.152 16 94.284 16H91.358ZM94.158 14.922C95.054 14.922 95.684 14.7727 96.048 14.474C96.412 14.166 96.594 13.6993 96.594 13.074C96.594 12.6447 96.5053 12.304 96.328 12.052C96.16 11.7907 95.88 11.604 95.488 11.492C95.1053 11.38 94.592 11.324 93.948 11.324H92.618V14.922H94.158ZM105.515 16H104.269V9.518H102.057C101.964 10.7033 101.847 11.716 101.707 12.556C101.567 13.3867 101.39 14.0633 101.175 14.586C100.961 15.1087 100.704 15.4913 100.405 15.734C100.107 15.9767 99.7566 16.098 99.3553 16.098C99.2339 16.098 99.1126 16.0887 98.9913 16.07C98.8793 16.0607 98.7859 16.0373 98.7113 16V15.076C98.7673 15.0947 98.8279 15.1087 98.8933 15.118C98.9586 15.1273 99.0239 15.132 99.0893 15.132C99.2946 15.132 99.4813 15.048 99.6493 14.88C99.8173 14.712 99.9666 14.4553 100.097 14.11C100.237 13.7647 100.363 13.3307 100.475 12.808C100.587 12.276 100.685 11.6507 100.769 10.932C100.853 10.2133 100.928 9.40133 100.993 8.496H105.515V16ZM114.421 12.234C114.421 12.8593 114.337 13.4147 114.169 13.9C114.01 14.376 113.777 14.782 113.469 15.118C113.17 15.454 112.802 15.7107 112.363 15.888C111.934 16.056 111.453 16.14 110.921 16.14C110.426 16.14 109.969 16.056 109.549 15.888C109.129 15.7107 108.765 15.454 108.457 15.118C108.149 14.782 107.906 14.376 107.729 13.9C107.561 13.4147 107.477 12.8593 107.477 12.234C107.477 11.4033 107.617 10.7033 107.897 10.134C108.177 9.55533 108.578 9.11667 109.101 8.818C109.624 8.51 110.244 8.356 110.963 8.356C111.644 8.356 112.242 8.51 112.755 8.818C113.278 9.11667 113.684 9.55533 113.973 10.134C114.272 10.7033 114.421 11.4033 114.421 12.234ZM108.751 12.234C108.751 12.822 108.826 13.3353 108.975 13.774C109.134 14.2033 109.376 14.5347 109.703 14.768C110.03 15.0013 110.445 15.118 110.949 15.118C111.453 15.118 111.868 15.0013 112.195 14.768C112.522 14.5347 112.76 14.2033 112.909 13.774C113.068 13.3353 113.147 12.822 113.147 12.234C113.147 11.6367 113.068 11.128 112.909 10.708C112.75 10.288 112.508 9.966 112.181 9.742C111.864 9.50867 111.448 9.392 110.935 9.392C110.17 9.392 109.614 9.644 109.269 10.148C108.924 10.652 108.751 11.3473 108.751 12.234ZM120.952 8.496V9.532H117.606V16H116.374V8.496H120.952Z" fill="white"/>
<path d="M132.56 12.794V11.702H145.44V12.794H132.56Z" fill="white"/>
<path d="M161.642 6.97C161.11 6.97 160.629 7.06333 160.2 7.25C159.771 7.42733 159.407 7.69333 159.108 8.048C158.809 8.39333 158.581 8.818 158.422 9.322C158.263 9.81667 158.184 10.3767 158.184 11.002C158.184 11.8233 158.31 12.5373 158.562 13.144C158.823 13.7507 159.206 14.2173 159.71 14.544C160.223 14.8707 160.863 15.034 161.628 15.034C162.067 15.034 162.482 14.9967 162.874 14.922C163.266 14.8473 163.649 14.754 164.022 14.642V15.734C163.649 15.874 163.261 15.9767 162.86 16.042C162.468 16.1073 161.997 16.14 161.446 16.14C160.429 16.14 159.579 15.93 158.898 15.51C158.217 15.09 157.703 14.4927 157.358 13.718C157.022 12.9433 156.854 12.0333 156.854 10.988C156.854 10.232 156.957 9.54133 157.162 8.916C157.377 8.29067 157.685 7.74933 158.086 7.292C158.497 6.83467 159.001 6.48467 159.598 6.242C160.195 5.99 160.881 5.864 161.656 5.864C162.169 5.864 162.664 5.91533 163.14 6.018C163.616 6.12067 164.041 6.26533 164.414 6.452L163.91 7.516C163.602 7.376 163.257 7.25 162.874 7.138C162.501 7.026 162.09 6.97 161.642 6.97ZM172.56 12.234C172.56 12.8593 172.476 13.4147 172.308 13.9C172.149 14.376 171.916 14.782 171.608 15.118C171.309 15.454 170.94 15.7107 170.502 15.888C170.072 16.056 169.592 16.14 169.06 16.14C168.565 16.14 168.108 16.056 167.688 15.888C167.268 15.7107 166.904 15.454 166.596 15.118C166.288 14.782 166.045 14.376 165.868 13.9C165.7 13.4147 165.616 12.8593 165.616 12.234C165.616 11.4033 165.756 10.7033 166.036 10.134C166.316 9.55533 166.717 9.11667 167.24 8.818C167.762 8.51 168.383 8.356 169.102 8.356C169.783 8.356 170.38 8.51 170.894 8.818C171.416 9.11667 171.822 9.55533 172.112 10.134C172.41 10.7033 172.56 11.4033 172.56 12.234ZM166.89 12.234C166.89 12.822 166.964 13.3353 167.114 13.774C167.272 14.2033 167.515 14.5347 167.842 14.768C168.168 15.0013 168.584 15.118 169.088 15.118C169.592 15.118 170.007 15.0013 170.334 14.768C170.66 14.5347 170.898 14.2033 171.048 13.774C171.206 13.3353 171.286 12.822 171.286 12.234C171.286 11.6367 171.206 11.128 171.048 10.708C170.889 10.288 170.646 9.966 170.32 9.742C170.002 9.50867 169.587 9.392 169.074 9.392C168.308 9.392 167.753 9.644 167.408 10.148C167.062 10.652 166.89 11.3473 166.89 12.234ZM180.546 10.386C180.546 10.8527 180.406 11.2167 180.126 11.478C179.846 11.7393 179.487 11.9167 179.048 12.01V12.066C179.515 12.1313 179.921 12.2993 180.266 12.57C180.612 12.8313 180.784 13.242 180.784 13.802C180.784 14.1193 180.724 14.4133 180.602 14.684C180.49 14.9547 180.313 15.188 180.07 15.384C179.828 15.58 179.515 15.734 179.132 15.846C178.75 15.9487 178.288 16 177.746 16H174.512V8.496H177.732C178.264 8.496 178.74 8.55667 179.16 8.678C179.59 8.79 179.926 8.986 180.168 9.266C180.42 9.53667 180.546 9.91 180.546 10.386ZM179.51 13.802C179.51 13.3727 179.347 13.0647 179.02 12.878C178.694 12.6913 178.213 12.598 177.578 12.598H175.744V15.006H177.606C178.222 15.006 178.694 14.9173 179.02 14.74C179.347 14.5533 179.51 14.2407 179.51 13.802ZM179.3 10.54C179.3 10.1853 179.17 9.92867 178.908 9.77C178.656 9.602 178.241 9.518 177.662 9.518H175.744V11.576H177.438C178.045 11.576 178.507 11.492 178.824 11.324C179.142 11.156 179.3 10.8947 179.3 10.54ZM186.149 8.356C187.073 8.356 187.815 8.678 188.375 9.322C188.944 9.966 189.229 10.9367 189.229 12.234C189.229 13.0833 189.098 13.802 188.837 14.39C188.585 14.9687 188.225 15.4073 187.759 15.706C187.301 15.9953 186.76 16.14 186.135 16.14C185.752 16.14 185.411 16.0887 185.113 15.986C184.814 15.8833 184.557 15.7527 184.343 15.594C184.137 15.426 183.96 15.244 183.811 15.048H183.727C183.745 15.2067 183.764 15.4073 183.783 15.65C183.801 15.8927 183.811 16.1027 183.811 16.28V19.36H182.579V8.496H183.587L183.755 9.518H183.811C183.96 9.30333 184.137 9.10733 184.343 8.93C184.557 8.75267 184.809 8.61267 185.099 8.51C185.397 8.40733 185.747 8.356 186.149 8.356ZM185.925 9.392C185.421 9.392 185.015 9.49 184.707 9.686C184.399 9.87267 184.175 10.1573 184.035 10.54C183.895 10.9227 183.82 11.408 183.811 11.996V12.234C183.811 12.85 183.876 13.3727 184.007 13.802C184.137 14.2313 184.357 14.558 184.665 14.782C184.982 15.006 185.411 15.118 185.953 15.118C186.41 15.118 186.783 14.992 187.073 14.74C187.371 14.488 187.591 14.1473 187.731 13.718C187.88 13.2793 187.955 12.78 187.955 12.22C187.955 11.3613 187.787 10.6753 187.451 10.162C187.124 9.64867 186.615 9.392 185.925 9.392ZM194.09 8.356C194.734 8.356 195.285 8.496 195.742 8.776C196.209 9.056 196.563 9.45267 196.806 9.966C197.058 10.47 197.184 11.0627 197.184 11.744V12.486H192.046C192.065 13.3353 192.279 13.984 192.69 14.432C193.11 14.8707 193.693 15.09 194.44 15.09C194.916 15.09 195.336 15.048 195.7 14.964C196.073 14.8707 196.456 14.74 196.848 14.572V15.65C196.465 15.818 196.087 15.9393 195.714 16.014C195.341 16.098 194.897 16.14 194.384 16.14C193.675 16.14 193.045 15.9953 192.494 15.706C191.953 15.4167 191.528 14.9873 191.22 14.418C190.921 13.8393 190.772 13.1347 190.772 12.304C190.772 11.4827 190.907 10.778 191.178 10.19C191.458 9.602 191.845 9.14933 192.34 8.832C192.844 8.51467 193.427 8.356 194.09 8.356ZM194.076 9.364C193.488 9.364 193.021 9.55533 192.676 9.938C192.34 10.3113 192.139 10.834 192.074 11.506H195.896C195.896 11.0767 195.831 10.7033 195.7 10.386C195.569 10.0687 195.369 9.82133 195.098 9.644C194.837 9.45733 194.496 9.364 194.076 9.364ZM207.144 8.496V16H206.038V11.212C206.038 11.016 206.043 10.8107 206.052 10.596C206.071 10.3813 206.09 10.1713 206.108 9.966H206.066L203.616 16H202.58L200.2 9.966H200.158C200.177 10.1713 200.186 10.3813 200.186 10.596C200.196 10.8107 200.2 11.03 200.2 11.254V16H199.094V8.496H200.732L203.098 14.53L205.506 8.496H207.144ZM212.438 8.356C213.082 8.356 213.632 8.496 214.09 8.776C214.556 9.056 214.911 9.45267 215.154 9.966C215.406 10.47 215.532 11.0627 215.532 11.744V12.486H210.394C210.412 13.3353 210.627 13.984 211.038 14.432C211.458 14.8707 212.041 15.09 212.788 15.09C213.264 15.09 213.684 15.048 214.048 14.964C214.421 14.8707 214.804 14.74 215.196 14.572V15.65C214.813 15.818 214.435 15.9393 214.062 16.014C213.688 16.098 213.245 16.14 212.732 16.14C212.022 16.14 211.392 15.9953 210.842 15.706C210.3 15.4167 209.876 14.9873 209.568 14.418C209.269 13.8393 209.12 13.1347 209.12 12.304C209.12 11.4827 209.255 10.778 209.526 10.19C209.806 9.602 210.193 9.14933 210.688 8.832C211.192 8.51467 211.775 8.356 212.438 8.356ZM212.424 9.364C211.836 9.364 211.369 9.55533 211.024 9.938C210.688 10.3113 210.487 10.834 210.422 11.506H214.244C214.244 11.0767 214.178 10.7033 214.048 10.386C213.917 10.0687 213.716 9.82133 213.446 9.644C213.184 9.45733 212.844 9.364 212.424 9.364ZM218.674 8.496V11.618H222.748V8.496H223.98V16H222.748V12.654H218.674V16H217.442V8.496H218.674ZM227.588 8.496V11.618H231.662V8.496H232.894V16H231.662V12.654H227.588V16H226.356V8.496H227.588ZM238.112 8.37C239.027 8.37 239.703 8.57067 240.142 8.972C240.581 9.37333 240.8 10.0127 240.8 10.89V16H239.904L239.666 14.936H239.61C239.395 15.2067 239.171 15.4353 238.938 15.622C238.714 15.7993 238.453 15.93 238.154 16.014C237.865 16.098 237.51 16.14 237.09 16.14C236.642 16.14 236.236 16.0607 235.872 15.902C235.517 15.7433 235.237 15.5007 235.032 15.174C234.827 14.838 234.724 14.418 234.724 13.914C234.724 13.1673 235.018 12.5933 235.606 12.192C236.194 11.7813 237.099 11.5573 238.322 11.52L239.596 11.478V11.03C239.596 10.4047 239.461 9.97067 239.19 9.728C238.919 9.48533 238.537 9.364 238.042 9.364C237.65 9.364 237.277 9.42467 236.922 9.546C236.567 9.658 236.236 9.78867 235.928 9.938L235.55 9.014C235.877 8.83667 236.264 8.68733 236.712 8.566C237.16 8.43533 237.627 8.37 238.112 8.37ZM238.476 12.374C237.543 12.4113 236.894 12.5607 236.53 12.822C236.175 13.0833 235.998 13.452 235.998 13.928C235.998 14.348 236.124 14.656 236.376 14.852C236.637 15.048 236.969 15.146 237.37 15.146C238.005 15.146 238.532 14.9733 238.952 14.628C239.372 14.2733 239.582 13.732 239.582 13.004V12.332L238.476 12.374ZM243.58 16H242.152L244.294 12.85C244.004 12.7753 243.724 12.6587 243.454 12.5C243.183 12.332 242.964 12.1033 242.796 11.814C242.628 11.5153 242.544 11.1467 242.544 10.708C242.544 9.98933 242.786 9.44333 243.272 9.07C243.757 8.68733 244.401 8.496 245.204 8.496H248.564V16H247.332V13.018H245.512L243.58 16ZM243.734 10.722C243.734 11.1513 243.892 11.4733 244.21 11.688C244.536 11.8933 244.989 11.996 245.568 11.996H247.332V9.518H245.33C244.76 9.518 244.35 9.63 244.098 9.854C243.855 10.078 243.734 10.3673 243.734 10.722ZM262.625 8.496V16H261.519V11.212C261.519 11.016 261.523 10.8107 261.533 10.596C261.551 10.3813 261.57 10.1713 261.589 9.966H261.547L259.097 16H258.061L255.681 9.966H255.639C255.657 10.1713 255.667 10.3813 255.667 10.596C255.676 10.8107 255.681 11.03 255.681 11.254V16H254.575V8.496H256.213L258.579 14.53L260.987 8.496H262.625ZM267.918 8.356C268.562 8.356 269.113 8.496 269.57 8.776C270.037 9.056 270.391 9.45267 270.634 9.966C270.886 10.47 271.012 11.0627 271.012 11.744V12.486H265.874C265.893 13.3353 266.107 13.984 266.518 14.432C266.938 14.8707 267.521 15.09 268.268 15.09C268.744 15.09 269.164 15.048 269.528 14.964C269.901 14.8707 270.284 14.74 270.676 14.572V15.65C270.293 15.818 269.915 15.9393 269.542 16.014C269.169 16.098 268.725 16.14 268.212 16.14C267.503 16.14 266.873 15.9953 266.322 15.706C265.781 15.4167 265.356 14.9873 265.048 14.418C264.749 13.8393 264.6 13.1347 264.6 12.304C264.6 11.4827 264.735 10.778 265.006 10.19C265.286 9.602 265.673 9.14933 266.168 8.832C266.672 8.51467 267.255 8.356 267.918 8.356ZM267.904 9.364C267.316 9.364 266.849 9.55533 266.504 9.938C266.168 10.3113 265.967 10.834 265.902 11.506H269.724C269.724 11.0767 269.659 10.7033 269.528 10.386C269.397 10.0687 269.197 9.82133 268.926 9.644C268.665 9.45733 268.324 9.364 267.904 9.364ZM278.102 9.532H275.652V16H274.434V9.532H272.012V8.496H278.102V9.532ZM285.968 12.234C285.968 12.8593 285.884 13.4147 285.716 13.9C285.557 14.376 285.324 14.782 285.016 15.118C284.717 15.454 284.349 15.7107 283.91 15.888C283.481 16.056 283 16.14 282.468 16.14C281.973 16.14 281.516 16.056 281.096 15.888C280.676 15.7107 280.312 15.454 280.004 15.118C279.696 14.782 279.453 14.376 279.276 13.9C279.108 13.4147 279.024 12.8593 279.024 12.234C279.024 11.4033 279.164 10.7033 279.444 10.134C279.724 9.55533 280.125 9.11667 280.648 8.818C281.171 8.51 281.791 8.356 282.51 8.356C283.191 8.356 283.789 8.51 284.302 8.818C284.825 9.11667 285.231 9.55533 285.52 10.134C285.819 10.7033 285.968 11.4033 285.968 12.234ZM280.298 12.234C280.298 12.822 280.373 13.3353 280.522 13.774C280.681 14.2033 280.923 14.5347 281.25 14.768C281.577 15.0013 281.992 15.118 282.496 15.118C283 15.118 283.415 15.0013 283.742 14.768C284.069 14.5347 284.307 14.2033 284.456 13.774C284.615 13.3353 284.694 12.822 284.694 12.234C284.694 11.6367 284.615 11.128 284.456 10.708C284.297 10.288 284.055 9.966 283.728 9.742C283.411 9.50867 282.995 9.392 282.482 9.392C281.717 9.392 281.161 9.644 280.816 10.148C280.471 10.652 280.298 11.3473 280.298 12.234ZM293.492 8.496V14.964H294.584V18.604H293.394V16H288.172V18.604H286.996V14.964H287.598C288.028 14.3667 288.382 13.718 288.662 13.018C288.952 12.3087 289.166 11.5713 289.306 10.806C289.456 10.0313 289.535 9.26133 289.544 8.496H293.492ZM290.636 9.462C290.599 10.0967 290.501 10.7547 290.342 11.436C290.184 12.108 289.978 12.752 289.726 13.368C289.484 13.984 289.199 14.516 288.872 14.964H292.302V9.462H290.636ZM302.579 12.234C302.579 12.8593 302.495 13.4147 302.327 13.9C302.169 14.376 301.935 14.782 301.627 15.118C301.329 15.454 300.96 15.7107 300.521 15.888C300.092 16.056 299.611 16.14 299.079 16.14C298.585 16.14 298.127 16.056 297.707 15.888C297.287 15.7107 296.923 15.454 296.615 15.118C296.307 14.782 296.065 14.376 295.887 13.9C295.719 13.4147 295.635 12.8593 295.635 12.234C295.635 11.4033 295.775 10.7033 296.055 10.134C296.335 9.55533 296.737 9.11667 297.259 8.818C297.782 8.51 298.403 8.356 299.121 8.356C299.803 8.356 300.4 8.51 300.913 8.818C301.436 9.11667 301.842 9.55533 302.131 10.134C302.43 10.7033 302.579 11.4033 302.579 12.234ZM296.909 12.234C296.909 12.822 296.984 13.3353 297.133 13.774C297.292 14.2033 297.535 14.5347 297.861 14.768C298.188 15.0013 298.603 15.118 299.107 15.118C299.611 15.118 300.027 15.0013 300.353 14.768C300.68 14.5347 300.918 14.2033 301.067 13.774C301.226 13.3353 301.305 12.822 301.305 12.234C301.305 11.6367 301.226 11.128 301.067 10.708C300.909 10.288 300.666 9.966 300.339 9.742C300.022 9.50867 299.607 9.392 299.093 9.392C298.328 9.392 297.773 9.644 297.427 10.148C297.082 10.652 296.909 11.3473 296.909 12.234ZM310.244 16H308.998V9.518H306.786C306.692 10.7033 306.576 11.716 306.436 12.556C306.296 13.3867 306.118 14.0633 305.904 14.586C305.689 15.1087 305.432 15.4913 305.134 15.734C304.835 15.9767 304.485 16.098 304.084 16.098C303.962 16.098 303.841 16.0887 303.72 16.07C303.608 16.0607 303.514 16.0373 303.44 16V15.076C303.496 15.0947 303.556 15.1087 303.622 15.118C303.687 15.1273 303.752 15.132 303.818 15.132C304.023 15.132 304.21 15.048 304.378 14.88C304.546 14.712 304.695 14.4553 304.826 14.11C304.966 13.7647 305.092 13.3307 305.204 12.808C305.316 12.276 305.414 11.6507 305.498 10.932C305.582 10.2133 305.656 9.40133 305.722 8.496H310.244V16ZM319.15 12.234C319.15 12.8593 319.066 13.4147 318.898 13.9C318.739 14.376 318.506 14.782 318.198 15.118C317.899 15.454 317.53 15.7107 317.092 15.888C316.662 16.056 316.182 16.14 315.65 16.14C315.155 16.14 314.698 16.056 314.278 15.888C313.858 15.7107 313.494 15.454 313.186 15.118C312.878 14.782 312.635 14.376 312.458 13.9C312.29 13.4147 312.206 12.8593 312.206 12.234C312.206 11.4033 312.346 10.7033 312.626 10.134C312.906 9.55533 313.307 9.11667 313.83 8.818C314.352 8.51 314.973 8.356 315.692 8.356C316.373 8.356 316.97 8.51 317.484 8.818C318.006 9.11667 318.412 9.55533 318.702 10.134C319 10.7033 319.15 11.4033 319.15 12.234ZM313.48 12.234C313.48 12.822 313.554 13.3353 313.704 13.774C313.862 14.2033 314.105 14.5347 314.432 14.768C314.758 15.0013 315.174 15.118 315.678 15.118C316.182 15.118 316.597 15.0013 316.924 14.768C317.25 14.5347 317.488 14.2033 317.638 13.774C317.796 13.3353 317.876 12.822 317.876 12.234C317.876 11.6367 317.796 11.128 317.638 10.708C317.479 10.288 317.236 9.966 316.91 9.742C316.592 9.50867 316.177 9.392 315.664 9.392C314.898 9.392 314.343 9.644 313.998 10.148C313.652 10.652 313.48 11.3473 313.48 12.234ZM325.68 8.496V9.532H322.334V16H321.102V8.496H325.68ZM328.321 13.074C328.321 13.158 328.316 13.2793 328.307 13.438C328.307 13.5873 328.302 13.7507 328.293 13.928C328.283 14.096 328.274 14.2593 328.265 14.418C328.255 14.5673 328.246 14.6887 328.237 14.782L332.255 8.496H333.767V16H332.619V11.576C332.619 11.4267 332.619 11.2307 332.619 10.988C332.628 10.7453 332.637 10.5073 332.647 10.274C332.656 10.0313 332.665 9.84933 332.675 9.728L328.685 16H327.159V8.496H328.321V13.074ZM336.617 16H335.189L337.331 12.85C337.042 12.7753 336.762 12.6587 336.491 12.5C336.22 12.332 336.001 12.1033 335.833 11.814C335.665 11.5153 335.581 11.1467 335.581 10.708C335.581 9.98933 335.824 9.44333 336.309 9.07C336.794 8.68733 337.438 8.496 338.241 8.496H341.601V16H340.369V13.018H338.549L336.617 16ZM336.771 10.722C336.771 11.1513 336.93 11.4733 337.247 11.688C337.574 11.8933 338.026 11.996 338.605 11.996H340.369V9.518H338.367C337.798 9.518 337.387 9.63 337.135 9.854C336.892 10.078 336.771 10.3673 336.771 10.722ZM351.182 8.356C352.106 8.356 352.848 8.678 353.408 9.322C353.977 9.966 354.262 10.9367 354.262 12.234C354.262 13.0833 354.131 13.802 353.87 14.39C353.618 14.9687 353.259 15.4073 352.792 15.706C352.335 15.9953 351.793 16.14 351.168 16.14C350.785 16.14 350.445 16.0887 350.146 15.986C349.847 15.8833 349.591 15.7527 349.376 15.594C349.171 15.426 348.993 15.244 348.844 15.048H348.76C348.779 15.2067 348.797 15.4073 348.816 15.65C348.835 15.8927 348.844 16.1027 348.844 16.28V19.36H347.612V8.496H348.62L348.788 9.518H348.844C348.993 9.30333 349.171 9.10733 349.376 8.93C349.591 8.75267 349.843 8.61267 350.132 8.51C350.431 8.40733 350.781 8.356 351.182 8.356ZM350.958 9.392C350.454 9.392 350.048 9.49 349.74 9.686C349.432 9.87267 349.208 10.1573 349.068 10.54C348.928 10.9227 348.853 11.408 348.844 11.996V12.234C348.844 12.85 348.909 13.3727 349.04 13.802C349.171 14.2313 349.39 14.558 349.698 14.782C350.015 15.006 350.445 15.118 350.986 15.118C351.443 15.118 351.817 14.992 352.106 14.74C352.405 14.488 352.624 14.1473 352.764 13.718C352.913 13.2793 352.988 12.78 352.988 12.22C352.988 11.3613 352.82 10.6753 352.484 10.162C352.157 9.64867 351.649 9.392 350.958 9.392ZM359.067 8.37C359.982 8.37 360.658 8.57067 361.097 8.972C361.536 9.37333 361.755 10.0127 361.755 10.89V16H360.859L360.621 14.936H360.565C360.35 15.2067 360.126 15.4353 359.893 15.622C359.669 15.7993 359.408 15.93 359.109 16.014C358.82 16.098 358.465 16.14 358.045 16.14C357.597 16.14 357.191 16.0607 356.827 15.902C356.472 15.7433 356.192 15.5007 355.987 15.174C355.782 14.838 355.679 14.418 355.679 13.914C355.679 13.1673 355.973 12.5933 356.561 12.192C357.149 11.7813 358.054 11.5573 359.277 11.52L360.551 11.478V11.03C360.551 10.4047 360.416 9.97067 360.145 9.728C359.874 9.48533 359.492 9.364 358.997 9.364C358.605 9.364 358.232 9.42467 357.877 9.546C357.522 9.658 357.191 9.78867 356.883 9.938L356.505 9.014C356.832 8.83667 357.219 8.68733 357.667 8.566C358.115 8.43533 358.582 8.37 359.067 8.37ZM359.431 12.374C358.498 12.4113 357.849 12.5607 357.485 12.822C357.13 13.0833 356.953 13.452 356.953 13.928C356.953 14.348 357.079 14.656 357.331 14.852C357.592 15.048 357.924 15.146 358.325 15.146C358.96 15.146 359.487 14.9733 359.907 14.628C360.327 14.2733 360.537 13.732 360.537 13.004V12.332L359.431 12.374ZM366.047 8.356C366.616 8.356 367.111 8.43533 367.531 8.594C367.951 8.74333 368.277 8.96733 368.511 9.266C368.744 9.55533 368.861 9.91 368.861 10.33C368.861 10.7873 368.735 11.1513 368.483 11.422C368.231 11.6833 367.885 11.8747 367.447 11.996V12.052C367.745 12.136 368.021 12.2527 368.273 12.402C368.525 12.5513 368.725 12.7473 368.875 12.99C369.033 13.2327 369.113 13.5453 369.113 13.928C369.113 14.3387 368.996 14.712 368.763 15.048C368.539 15.384 368.189 15.65 367.713 15.846C367.246 16.042 366.644 16.14 365.907 16.14C365.552 16.14 365.211 16.1213 364.885 16.084C364.567 16.0467 364.278 15.9907 364.017 15.916C363.765 15.8413 363.541 15.7527 363.345 15.65V14.544C363.662 14.6933 364.035 14.8287 364.465 14.95C364.903 15.0713 365.379 15.132 365.893 15.132C366.266 15.132 366.602 15.09 366.901 15.006C367.209 14.922 367.451 14.7913 367.629 14.614C367.806 14.4273 367.895 14.1753 367.895 13.858C367.895 13.5687 367.815 13.3353 367.657 13.158C367.498 12.9713 367.26 12.8313 366.943 12.738C366.635 12.6447 366.238 12.598 365.753 12.598H364.745V11.59H365.557C366.201 11.59 366.714 11.506 367.097 11.338C367.489 11.1607 367.685 10.862 367.685 10.442C367.685 10.0873 367.535 9.82133 367.237 9.644C366.947 9.46667 366.527 9.378 365.977 9.378C365.566 9.378 365.202 9.42 364.885 9.504C364.577 9.57867 364.236 9.69533 363.863 9.854L363.429 8.874C363.83 8.69667 364.25 8.566 364.689 8.482C365.127 8.398 365.58 8.356 366.047 8.356ZM374.506 8.356C375.43 8.356 376.172 8.678 376.732 9.322C377.301 9.966 377.586 10.9367 377.586 12.234C377.586 13.0833 377.455 13.802 377.194 14.39C376.942 14.9687 376.583 15.4073 376.116 15.706C375.659 15.9953 375.117 16.14 374.492 16.14C374.109 16.14 373.769 16.0887 373.47 15.986C373.171 15.8833 372.915 15.7527 372.7 15.594C372.495 15.426 372.317 15.244 372.168 15.048H372.084C372.103 15.2067 372.121 15.4073 372.14 15.65C372.159 15.8927 372.168 16.1027 372.168 16.28V19.36H370.936V8.496H371.944L372.112 9.518H372.168C372.317 9.30333 372.495 9.10733 372.7 8.93C372.915 8.75267 373.167 8.61267 373.456 8.51C373.755 8.40733 374.105 8.356 374.506 8.356ZM374.282 9.392C373.778 9.392 373.372 9.49 373.064 9.686C372.756 9.87267 372.532 10.1573 372.392 10.54C372.252 10.9227 372.177 11.408 372.168 11.996V12.234C372.168 12.85 372.233 13.3727 372.364 13.802C372.495 14.2313 372.714 14.558 373.022 14.782C373.339 15.006 373.769 15.118 374.31 15.118C374.767 15.118 375.141 14.992 375.43 14.74C375.729 14.488 375.948 14.1473 376.088 13.718C376.237 13.2793 376.312 12.78 376.312 12.22C376.312 11.3613 376.144 10.6753 375.808 10.162C375.481 9.64867 374.973 9.392 374.282 9.392ZM382.391 8.37C383.306 8.37 383.983 8.57067 384.421 8.972C384.86 9.37333 385.079 10.0127 385.079 10.89V16H384.183L383.945 14.936H383.889C383.675 15.2067 383.451 15.4353 383.217 15.622C382.993 15.7993 382.732 15.93 382.433 16.014C382.144 16.098 381.789 16.14 381.369 16.14C380.921 16.14 380.515 16.0607 380.151 15.902C379.797 15.7433 379.517 15.5007 379.311 15.174C379.106 14.838 379.003 14.418 379.003 13.914C379.003 13.1673 379.297 12.5933 379.885 12.192C380.473 11.7813 381.379 11.5573 382.601 11.52L383.875 11.478V11.03C383.875 10.4047 383.74 9.97067 383.469 9.728C383.199 9.48533 382.816 9.364 382.321 9.364C381.929 9.364 381.556 9.42467 381.201 9.546C380.847 9.658 380.515 9.78867 380.207 9.938L379.829 9.014C380.156 8.83667 380.543 8.68733 380.991 8.566C381.439 8.43533 381.906 8.37 382.391 8.37ZM382.755 12.374C381.822 12.4113 381.173 12.5607 380.809 12.822C380.455 13.0833 380.277 13.452 380.277 13.928C380.277 14.348 380.403 14.656 380.655 14.852C380.917 15.048 381.248 15.146 381.649 15.146C382.284 15.146 382.811 14.9733 383.231 14.628C383.651 14.2733 383.861 13.732 383.861 13.004V12.332L382.755 12.374ZM387.005 11.492C387.005 10.4 387.112 9.47133 387.327 8.706C387.551 7.93133 387.892 7.31533 388.349 6.858C388.816 6.39133 389.413 6.07867 390.141 5.92C390.748 5.78933 391.34 5.67267 391.919 5.57C392.498 5.46733 393.039 5.374 393.543 5.29L393.753 6.368C393.51 6.40533 393.24 6.452 392.941 6.508C392.642 6.55467 392.339 6.606 392.031 6.662C391.723 6.70867 391.424 6.76 391.135 6.816C390.855 6.86267 390.608 6.90933 390.393 6.956C390.085 7.02133 389.81 7.13333 389.567 7.292C389.324 7.44133 389.114 7.64667 388.937 7.908C388.769 8.16933 388.634 8.49133 388.531 8.874C388.428 9.25667 388.368 9.70933 388.349 10.232H388.433C388.564 10.0547 388.741 9.87267 388.965 9.686C389.198 9.49933 389.474 9.34067 389.791 9.21C390.118 9.07933 390.486 9.014 390.897 9.014C391.55 9.014 392.092 9.15867 392.521 9.448C392.96 9.728 393.286 10.12 393.501 10.624C393.725 11.128 393.837 11.716 393.837 12.388C393.837 13.2187 393.692 13.914 393.403 14.474C393.114 15.034 392.712 15.454 392.199 15.734C391.686 16.0047 391.088 16.14 390.407 16.14C389.894 16.14 389.427 16.042 389.007 15.846C388.587 15.6407 388.228 15.342 387.929 14.95C387.63 14.558 387.402 14.0727 387.243 13.494C387.084 12.9153 387.005 12.248 387.005 11.492ZM390.505 15.118C390.916 15.118 391.27 15.034 391.569 14.866C391.877 14.698 392.115 14.4227 392.283 14.04C392.451 13.6573 392.535 13.1487 392.535 12.514C392.535 11.7487 392.39 11.1467 392.101 10.708C391.821 10.26 391.354 10.036 390.701 10.036C390.29 10.036 389.917 10.1293 389.581 10.316C389.245 10.4933 388.965 10.6987 388.741 10.932C388.517 11.1653 388.358 11.3613 388.265 11.52C388.265 11.9773 388.298 12.4207 388.363 12.85C388.428 13.2793 388.54 13.6667 388.699 14.012C388.867 14.348 389.096 14.6187 389.385 14.824C389.684 15.02 390.057 15.118 390.505 15.118ZM402.302 12.234C402.302 12.8593 402.218 13.4147 402.05 13.9C401.891 14.376 401.658 14.782 401.35 15.118C401.051 15.454 400.683 15.7107 400.244 15.888C399.815 16.056 399.334 16.14 398.802 16.14C398.307 16.14 397.85 16.056 397.43 15.888C397.01 15.7107 396.646 15.454 396.338 15.118C396.03 14.782 395.787 14.376 395.61 13.9C395.442 13.4147 395.358 12.8593 395.358 12.234C395.358 11.4033 395.498 10.7033 395.778 10.134C396.058 9.55533 396.459 9.11667 396.982 8.818C397.505 8.51 398.125 8.356 398.844 8.356C399.525 8.356 400.123 8.51 400.636 8.818C401.159 9.11667 401.565 9.55533 401.854 10.134C402.153 10.7033 402.302 11.4033 402.302 12.234ZM396.632 12.234C396.632 12.822 396.707 13.3353 396.856 13.774C397.015 14.2033 397.257 14.5347 397.584 14.768C397.911 15.0013 398.326 15.118 398.83 15.118C399.334 15.118 399.749 15.0013 400.076 14.768C400.403 14.5347 400.641 14.2033 400.79 13.774C400.949 13.3353 401.028 12.822 401.028 12.234C401.028 11.6367 400.949 11.128 400.79 10.708C400.631 10.288 400.389 9.966 400.062 9.742C399.745 9.50867 399.329 9.392 398.816 9.392C398.051 9.392 397.495 9.644 397.15 10.148C396.805 10.652 396.632 11.3473 396.632 12.234ZM409.298 9.532H406.848V16H405.63V9.532H403.208V8.496H409.298V9.532ZM415.214 8.496H416.558L413.352 12.108L416.824 16H415.396L412.008 12.192V16H410.776V8.496H412.008V12.136L415.214 8.496ZM419.348 13.074C419.348 13.158 419.343 13.2793 419.334 13.438C419.334 13.5873 419.329 13.7507 419.32 13.928C419.311 14.096 419.301 14.2593 419.292 14.418C419.283 14.5673 419.273 14.6887 419.264 14.782L423.282 8.496H424.794V16H423.646V11.576C423.646 11.4267 423.646 11.2307 423.646 10.988C423.655 10.7453 423.665 10.5073 423.674 10.274C423.683 10.0313 423.693 9.84933 423.702 9.728L419.712 16H418.186V8.496H419.348V13.074ZM437.343 12.234C437.343 12.8593 437.259 13.4147 437.091 13.9C436.932 14.376 436.699 14.782 436.391 15.118C436.092 15.454 435.724 15.7107 435.285 15.888C434.856 16.056 434.375 16.14 433.843 16.14C433.348 16.14 432.891 16.056 432.471 15.888C432.051 15.7107 431.687 15.454 431.379 15.118C431.071 14.782 430.828 14.376 430.651 13.9C430.483 13.4147 430.399 12.8593 430.399 12.234C430.399 11.4033 430.539 10.7033 430.819 10.134C431.099 9.55533 431.5 9.11667 432.023 8.818C432.546 8.51 433.166 8.356 433.885 8.356C434.566 8.356 435.164 8.51 435.677 8.818C436.2 9.11667 436.606 9.55533 436.895 10.134C437.194 10.7033 437.343 11.4033 437.343 12.234ZM431.673 12.234C431.673 12.822 431.748 13.3353 431.897 13.774C432.056 14.2033 432.298 14.5347 432.625 14.768C432.952 15.0013 433.367 15.118 433.871 15.118C434.375 15.118 434.79 15.0013 435.117 14.768C435.444 14.5347 435.682 14.2033 435.831 13.774C435.99 13.3353 436.069 12.822 436.069 12.234C436.069 11.6367 435.99 11.128 435.831 10.708C435.672 10.288 435.43 9.966 435.103 9.742C434.786 9.50867 434.37 9.392 433.857 9.392C433.092 9.392 432.536 9.644 432.191 10.148C431.846 10.652 431.673 11.3473 431.673 12.234ZM444.867 8.496V14.964H445.959V18.604H444.769V16H439.547V18.604H438.371V14.964H438.973C439.403 14.3667 439.757 13.718 440.037 13.018C440.327 12.3087 440.541 11.5713 440.681 10.806C440.831 10.0313 440.91 9.26133 440.919 8.496H444.867ZM442.011 9.462C441.974 10.0967 441.876 10.7547 441.717 11.436C441.559 12.108 441.353 12.752 441.101 13.368C440.859 13.984 440.574 14.516 440.247 14.964H443.677V9.462H442.011ZM446.254 8.496H447.57L449.194 12.766C449.288 13.018 449.372 13.2607 449.446 13.494C449.53 13.7273 449.605 13.956 449.67 14.18C449.736 14.3947 449.787 14.6047 449.824 14.81H449.88C449.936 14.5767 450.025 14.2733 450.146 13.9C450.268 13.5173 450.394 13.1347 450.524 12.752L452.05 8.496H453.38L450.146 17.036C449.969 17.5027 449.759 17.9087 449.516 18.254C449.283 18.6087 448.994 18.8793 448.648 19.066C448.312 19.262 447.902 19.36 447.416 19.36C447.192 19.36 446.996 19.346 446.828 19.318C446.66 19.2993 446.516 19.276 446.394 19.248V18.268C446.497 18.2867 446.618 18.3053 446.758 18.324C446.908 18.3427 447.062 18.352 447.22 18.352C447.51 18.352 447.757 18.296 447.962 18.184C448.177 18.0813 448.359 17.9273 448.508 17.722C448.658 17.526 448.784 17.2927 448.886 17.022L449.278 16.028L446.254 8.496ZM456.345 12.164L453.755 8.496H455.155L457.087 11.324L459.005 8.496H460.391L457.801 12.164L460.531 16H459.131L457.087 13.004L455.015 16H453.629L456.345 12.164ZM468.228 12.234C468.228 12.8593 468.144 13.4147 467.976 13.9C467.817 14.376 467.584 14.782 467.276 15.118C466.977 15.454 466.608 15.7107 466.17 15.888C465.74 16.056 465.26 16.14 464.728 16.14C464.233 16.14 463.776 16.056 463.356 15.888C462.936 15.7107 462.572 15.454 462.264 15.118C461.956 14.782 461.713 14.376 461.536 13.9C461.368 13.4147 461.284 12.8593 461.284 12.234C461.284 11.4033 461.424 10.7033 461.704 10.134C461.984 9.55533 462.385 9.11667 462.908 8.818C463.43 8.51 464.051 8.356 464.77 8.356C465.451 8.356 466.048 8.51 466.562 8.818C467.084 9.11667 467.49 9.55533 467.78 10.134C468.078 10.7033 468.228 11.4033 468.228 12.234ZM462.558 12.234C462.558 12.822 462.632 13.3353 462.782 13.774C462.94 14.2033 463.183 14.5347 463.51 14.768C463.836 15.0013 464.252 15.118 464.756 15.118C465.26 15.118 465.675 15.0013 466.002 14.768C466.328 14.5347 466.566 14.2033 466.716 13.774C466.874 13.3353 466.954 12.822 466.954 12.234C466.954 11.6367 466.874 11.128 466.716 10.708C466.557 10.288 466.314 9.966 465.988 9.742C465.67 9.50867 465.255 9.392 464.742 9.392C463.976 9.392 463.421 9.644 463.076 10.148C462.73 10.652 462.558 11.3473 462.558 12.234ZM475.224 9.532H472.774V16H471.556V9.532H469.134V8.496H475.224V9.532ZM482.736 10.386C482.736 10.8527 482.596 11.2167 482.316 11.478C482.036 11.7393 481.676 11.9167 481.238 12.01V12.066C481.704 12.1313 482.11 12.2993 482.456 12.57C482.801 12.8313 482.974 13.242 482.974 13.802C482.974 14.1193 482.913 14.4133 482.792 14.684C482.68 14.9547 482.502 15.188 482.26 15.384C482.017 15.58 481.704 15.734 481.322 15.846C480.939 15.9487 480.477 16 479.936 16H476.702V8.496H479.922C480.454 8.496 480.93 8.55667 481.35 8.678C481.779 8.79 482.115 8.986 482.358 9.266C482.61 9.53667 482.736 9.91 482.736 10.386ZM481.7 13.802C481.7 13.3727 481.536 13.0647 481.21 12.878C480.883 12.6913 480.402 12.598 479.768 12.598H477.934V15.006H479.796C480.412 15.006 480.883 14.9173 481.21 14.74C481.536 14.5533 481.7 14.2407 481.7 13.802ZM481.49 10.54C481.49 10.1853 481.359 9.92867 481.098 9.77C480.846 9.602 480.43 9.518 479.852 9.518H477.934V11.576H479.628C480.234 11.576 480.696 11.492 481.014 11.324C481.331 11.156 481.49 10.8947 481.49 10.54ZM491.292 12.234C491.292 12.8593 491.208 13.4147 491.04 13.9C490.881 14.376 490.648 14.782 490.34 15.118C490.041 15.454 489.673 15.7107 489.234 15.888C488.805 16.056 488.324 16.14 487.792 16.14C487.297 16.14 486.84 16.056 486.42 15.888C486 15.7107 485.636 15.454 485.328 15.118C485.02 14.782 484.777 14.376 484.6 13.9C484.432 13.4147 484.348 12.8593 484.348 12.234C484.348 11.4033 484.488 10.7033 484.768 10.134C485.048 9.55533 485.449 9.11667 485.972 8.818C486.495 8.51 487.115 8.356 487.834 8.356C488.515 8.356 489.113 8.51 489.626 8.818C490.149 9.11667 490.555 9.55533 490.844 10.134C491.143 10.7033 491.292 11.4033 491.292 12.234ZM485.622 12.234C485.622 12.822 485.697 13.3353 485.846 13.774C486.005 14.2033 486.247 14.5347 486.574 14.768C486.901 15.0013 487.316 15.118 487.82 15.118C488.324 15.118 488.739 15.0013 489.066 14.768C489.393 14.5347 489.631 14.2033 489.78 13.774C489.939 13.3353 490.018 12.822 490.018 12.234C490.018 11.6367 489.939 11.128 489.78 10.708C489.621 10.288 489.379 9.966 489.052 9.742C488.735 9.50867 488.319 9.392 487.806 9.392C487.041 9.392 486.485 9.644 486.14 10.148C485.795 10.652 485.622 11.3473 485.622 12.234ZM496.815 8.356C497.739 8.356 498.481 8.678 499.041 9.322C499.61 9.966 499.895 10.9367 499.895 12.234C499.895 13.0833 499.764 13.802 499.503 14.39C499.251 14.9687 498.891 15.4073 498.425 15.706C497.967 15.9953 497.426 16.14 496.801 16.14C496.418 16.14 496.077 16.0887 495.779 15.986C495.48 15.8833 495.223 15.7527 495.009 15.594C494.803 15.426 494.626 15.244 494.477 15.048H494.393C494.411 15.2067 494.43 15.4073 494.449 15.65C494.467 15.8927 494.477 16.1027 494.477 16.28V19.36H493.245V8.496H494.253L494.421 9.518H494.477C494.626 9.30333 494.803 9.10733 495.009 8.93C495.223 8.75267 495.475 8.61267 495.765 8.51C496.063 8.40733 496.413 8.356 496.815 8.356ZM496.591 9.392C496.087 9.392 495.681 9.49 495.373 9.686C495.065 9.87267 494.841 10.1573 494.701 10.54C494.561 10.9227 494.486 11.408 494.477 11.996V12.234C494.477 12.85 494.542 13.3727 494.673 13.802C494.803 14.2313 495.023 14.558 495.331 14.782C495.648 15.006 496.077 15.118 496.619 15.118C497.076 15.118 497.449 14.992 497.739 14.74C498.037 14.488 498.257 14.1473 498.397 13.718C498.546 13.2793 498.621 12.78 498.621 12.22C498.621 11.3613 498.453 10.6753 498.117 10.162C497.79 9.64867 497.281 9.392 496.591 9.392ZM503.02 13.074C503.02 13.158 503.015 13.2793 503.006 13.438C503.006 13.5873 503.001 13.7507 502.992 13.928C502.983 14.096 502.973 14.2593 502.964 14.418C502.955 14.5673 502.945 14.6887 502.936 14.782L506.954 8.496H508.466V16H507.318V11.576C507.318 11.4267 507.318 11.2307 507.318 10.988C507.327 10.7453 507.337 10.5073 507.346 10.274C507.355 10.0313 507.365 9.84933 507.374 9.728L503.384 16H501.858V8.496H503.02V13.074ZM516.566 16H515.32V9.518H513.108C513.015 10.7033 512.898 11.716 512.758 12.556C512.618 13.3867 512.441 14.0633 512.226 14.586C512.011 15.1087 511.755 15.4913 511.456 15.734C511.157 15.9767 510.807 16.098 510.406 16.098C510.285 16.098 510.163 16.0887 510.042 16.07C509.93 16.0607 509.837 16.0373 509.762 16V15.076C509.818 15.0947 509.879 15.1087 509.944 15.118C510.009 15.1273 510.075 15.132 510.14 15.132C510.345 15.132 510.532 15.048 510.7 14.88C510.868 14.712 511.017 14.4553 511.148 14.11C511.288 13.7647 511.414 13.3307 511.526 12.808C511.638 12.276 511.736 11.6507 511.82 10.932C511.904 10.2133 511.979 9.40133 512.044 8.496H516.566V16ZM521.79 8.37C522.704 8.37 523.381 8.57067 523.82 8.972C524.258 9.37333 524.478 10.0127 524.478 10.89V16H523.582L523.344 14.936H523.288C523.073 15.2067 522.849 15.4353 522.616 15.622C522.392 15.7993 522.13 15.93 521.832 16.014C521.542 16.098 521.188 16.14 520.768 16.14C520.32 16.14 519.914 16.0607 519.55 15.902C519.195 15.7433 518.915 15.5007 518.71 15.174C518.504 14.838 518.402 14.418 518.402 13.914C518.402 13.1673 518.696 12.5933 519.284 12.192C519.872 11.7813 520.777 11.5573 522 11.52L523.274 11.478V11.03C523.274 10.4047 523.138 9.97067 522.868 9.728C522.597 9.48533 522.214 9.364 521.72 9.364C521.328 9.364 520.954 9.42467 520.6 9.546C520.245 9.658 519.914 9.78867 519.606 9.938L519.228 9.014C519.554 8.83667 519.942 8.68733 520.39 8.566C520.838 8.43533 521.304 8.37 521.79 8.37ZM522.154 12.374C521.22 12.4113 520.572 12.5607 520.208 12.822C519.853 13.0833 519.676 13.452 519.676 13.928C519.676 14.348 519.802 14.656 520.054 14.852C520.315 15.048 520.646 15.146 521.048 15.146C521.682 15.146 522.21 14.9733 522.63 14.628C523.05 14.2733 523.26 13.732 523.26 13.004V12.332L522.154 12.374ZM536.466 10.386C536.466 10.8527 536.326 11.2167 536.046 11.478C535.766 11.7393 535.407 11.9167 534.968 12.01V12.066C535.435 12.1313 535.841 12.2993 536.186 12.57C536.532 12.8313 536.704 13.242 536.704 13.802C536.704 14.1193 536.644 14.4133 536.522 14.684C536.41 14.9547 536.233 15.188 535.99 15.384C535.748 15.58 535.435 15.734 535.052 15.846C534.67 15.9487 534.208 16 533.666 16H530.432V8.496H533.652C534.184 8.496 534.66 8.55667 535.08 8.678C535.51 8.79 535.846 8.986 536.088 9.266C536.34 9.53667 536.466 9.91 536.466 10.386ZM535.43 13.802C535.43 13.3727 535.267 13.0647 534.94 12.878C534.614 12.6913 534.133 12.598 533.498 12.598H531.664V15.006H533.526C534.142 15.006 534.614 14.9173 534.94 14.74C535.267 14.5533 535.43 14.2407 535.43 13.802ZM535.22 10.54C535.22 10.1853 535.09 9.92867 534.828 9.77C534.576 9.602 534.161 9.518 533.582 9.518H531.664V11.576H533.358C533.965 11.576 534.427 11.492 534.744 11.324C535.062 11.156 535.22 10.8947 535.22 10.54ZM541.509 16.14C540.846 16.14 540.253 16.0047 539.731 15.734C539.217 15.4633 538.811 15.0433 538.513 14.474C538.223 13.9047 538.079 13.1767 538.079 12.29C538.079 11.366 538.233 10.6147 538.541 10.036C538.849 9.45733 539.264 9.03267 539.787 8.762C540.319 8.49133 540.921 8.356 541.593 8.356C541.975 8.356 542.344 8.398 542.699 8.482C543.053 8.55667 543.343 8.65 543.567 8.762L543.189 9.784C542.965 9.7 542.703 9.62067 542.405 9.546C542.106 9.47133 541.826 9.434 541.565 9.434C541.061 9.434 540.645 9.54133 540.319 9.756C539.992 9.97067 539.749 10.288 539.591 10.708C539.432 11.128 539.353 11.6507 539.353 12.276C539.353 12.8733 539.432 13.382 539.591 13.802C539.749 14.222 539.987 14.5393 540.305 14.754C540.622 14.9687 541.019 15.076 541.495 15.076C541.905 15.076 542.265 15.034 542.573 14.95C542.89 14.866 543.179 14.7633 543.441 14.642V15.734C543.189 15.8647 542.909 15.9627 542.601 16.028C542.302 16.1027 541.938 16.14 541.509 16.14ZM548.123 8.356C548.767 8.356 549.318 8.496 549.775 8.776C550.242 9.056 550.596 9.45267 550.839 9.966C551.091 10.47 551.217 11.0627 551.217 11.744V12.486H546.079C546.098 13.3353 546.312 13.984 546.723 14.432C547.143 14.8707 547.726 15.09 548.473 15.09C548.949 15.09 549.369 15.048 549.733 14.964C550.106 14.8707 550.489 14.74 550.881 14.572V15.65C550.498 15.818 550.12 15.9393 549.747 16.014C549.374 16.098 548.93 16.14 548.417 16.14C547.708 16.14 547.078 15.9953 546.527 15.706C545.986 15.4167 545.561 14.9873 545.253 14.418C544.954 13.8393 544.805 13.1347 544.805 12.304C544.805 11.4827 544.94 10.778 545.211 10.19C545.491 9.602 545.878 9.14933 546.373 8.832C546.877 8.51467 547.46 8.356 548.123 8.356ZM548.109 9.364C547.521 9.364 547.054 9.55533 546.709 9.938C546.373 10.3113 546.172 10.834 546.107 11.506H549.929C549.929 11.0767 549.864 10.7033 549.733 10.386C549.602 10.0687 549.402 9.82133 549.131 9.644C548.87 9.45733 548.529 9.364 548.109 9.364ZM554.906 12.164L552.316 8.496H553.716L555.648 11.324L557.566 8.496H558.952L556.362 12.164L559.092 16H557.692L555.648 13.004L553.576 16H552.19L554.906 12.164ZM570.516 8.496V16H569.284V9.546H565.406V16H564.174V8.496H570.516ZM576.481 8.356C577.405 8.356 578.147 8.678 578.707 9.322C579.276 9.966 579.561 10.9367 579.561 12.234C579.561 13.0833 579.43 13.802 579.169 14.39C578.917 14.9687 578.557 15.4073 578.091 15.706C577.633 15.9953 577.092 16.14 576.467 16.14C576.084 16.14 575.743 16.0887 575.445 15.986C575.146 15.8833 574.889 15.7527 574.675 15.594C574.469 15.426 574.292 15.244 574.143 15.048H574.059C574.077 15.2067 574.096 15.4073 574.115 15.65C574.133 15.8927 574.143 16.1027 574.143 16.28V19.36H572.911V8.496H573.919L574.087 9.518H574.143C574.292 9.30333 574.469 9.10733 574.675 8.93C574.889 8.75267 575.141 8.61267 575.431 8.51C575.729 8.40733 576.079 8.356 576.481 8.356ZM576.257 9.392C575.753 9.392 575.347 9.49 575.039 9.686C574.731 9.87267 574.507 10.1573 574.367 10.54C574.227 10.9227 574.152 11.408 574.143 11.996V12.234C574.143 12.85 574.208 13.3727 574.339 13.802C574.469 14.2313 574.689 14.558 574.997 14.782C575.314 15.006 575.743 15.118 576.285 15.118C576.742 15.118 577.115 14.992 577.405 14.74C577.703 14.488 577.923 14.1473 578.063 13.718C578.212 13.2793 578.287 12.78 578.287 12.22C578.287 11.3613 578.119 10.6753 577.783 10.162C577.456 9.64867 576.947 9.392 576.257 9.392ZM582.686 13.074C582.686 13.158 582.681 13.2793 582.672 13.438C582.672 13.5873 582.667 13.7507 582.658 13.928C582.649 14.096 582.639 14.2593 582.63 14.418C582.621 14.5673 582.611 14.6887 582.602 14.782L586.62 8.496H588.132V16H586.984V11.576C586.984 11.4267 586.984 11.2307 586.984 10.988C586.993 10.7453 587.003 10.5073 587.012 10.274C587.021 10.0313 587.031 9.84933 587.04 9.728L583.05 16H581.524V8.496H582.686V13.074ZM591.598 11.226C591.598 11.6647 591.719 11.9913 591.962 12.206C592.214 12.4113 592.573 12.514 593.04 12.514C593.507 12.514 593.931 12.444 594.314 12.304C594.697 12.1547 595.089 11.9587 595.49 11.716V8.496H596.722V16H595.49V12.654C595.07 12.9247 594.655 13.1393 594.244 13.298C593.843 13.4473 593.357 13.522 592.788 13.522C592.023 13.522 591.425 13.3213 590.996 12.92C590.576 12.5187 590.366 11.982 590.366 11.31V8.496H591.598V11.226ZM601.948 8.37C602.863 8.37 603.539 8.57067 603.978 8.972C604.417 9.37333 604.636 10.0127 604.636 10.89V16H603.74L603.502 14.936H603.446C603.231 15.2067 603.007 15.4353 602.774 15.622C602.55 15.7993 602.289 15.93 601.99 16.014C601.701 16.098 601.346 16.14 600.926 16.14C600.478 16.14 600.072 16.0607 599.708 15.902C599.353 15.7433 599.073 15.5007 598.868 15.174C598.663 14.838 598.56 14.418 598.56 13.914C598.56 13.1673 598.854 12.5933 599.442 12.192C600.03 11.7813 600.935 11.5573 602.158 11.52L603.432 11.478V11.03C603.432 10.4047 603.297 9.97067 603.026 9.728C602.755 9.48533 602.373 9.364 601.878 9.364C601.486 9.364 601.113 9.42467 600.758 9.546C600.403 9.658 600.072 9.78867 599.764 9.938L599.386 9.014C599.713 8.83667 600.1 8.68733 600.548 8.566C600.996 8.43533 601.463 8.37 601.948 8.37ZM602.312 12.374C601.379 12.4113 600.73 12.5607 600.366 12.822C600.011 13.0833 599.834 13.452 599.834 13.928C599.834 14.348 599.96 14.656 600.212 14.852C600.473 15.048 600.805 15.146 601.206 15.146C601.841 15.146 602.368 14.9733 602.788 14.628C603.208 14.2733 603.418 13.732 603.418 13.004V12.332L602.312 12.374ZM609.964 16.14C609.301 16.14 608.708 16.0047 608.186 15.734C607.672 15.4633 607.266 15.0433 606.968 14.474C606.678 13.9047 606.534 13.1767 606.534 12.29C606.534 11.366 606.688 10.6147 606.996 10.036C607.304 9.45733 607.719 9.03267 608.242 8.762C608.774 8.49133 609.376 8.356 610.048 8.356C610.43 8.356 610.799 8.398 611.154 8.482C611.508 8.55667 611.798 8.65 612.022 8.762L611.644 9.784C611.42 9.7 611.158 9.62067 610.86 9.546C610.561 9.47133 610.281 9.434 610.02 9.434C609.516 9.434 609.1 9.54133 608.774 9.756C608.447 9.97067 608.204 10.288 608.046 10.708C607.887 11.128 607.808 11.6507 607.808 12.276C607.808 12.8733 607.887 13.382 608.046 13.802C608.204 14.222 608.442 14.5393 608.76 14.754C609.077 14.9687 609.474 15.076 609.95 15.076C610.36 15.076 610.72 15.034 611.028 14.95C611.345 14.866 611.634 14.7633 611.896 14.642V15.734C611.644 15.8647 611.364 15.9627 611.056 16.028C610.757 16.1027 610.393 16.14 609.964 16.14ZM618.86 9.532H616.41V16H615.192V9.532H612.77V8.496H618.86V9.532ZM621.57 8.496V11.618H625.644V8.496H626.876V16H625.644V12.654H621.57V16H620.338V8.496H621.57ZM629.253 16V8.496H630.485V11.576H632.431C633.084 11.576 633.621 11.6553 634.041 11.814C634.461 11.9727 634.773 12.2107 634.979 12.528C635.184 12.836 635.287 13.228 635.287 13.704C635.287 14.1707 635.184 14.5767 634.979 14.922C634.783 15.2673 634.47 15.5333 634.041 15.72C633.621 15.9067 633.065 16 632.375 16H629.253ZM632.263 15.006C632.795 15.006 633.229 14.9173 633.565 14.74C633.901 14.5533 634.069 14.2313 634.069 13.774C634.069 13.3167 633.915 13.0087 633.607 12.85C633.299 12.682 632.855 12.598 632.277 12.598H630.485V15.006H632.263ZM636.533 16V8.496H637.765V16H636.533ZM641.927 12.164L639.337 8.496H640.737L642.669 11.324L644.587 8.496H645.973L643.383 12.164L646.113 16H644.713L642.669 13.004L640.597 16H639.211L641.927 12.164Z" fill="white"/>
</svg>
