<svg width="50" height="50" viewBox="0 0 50 50" fill="none" xmlns="http://www.w3.org/2000/svg">
<path d="M34.4439 29.7569C33.6455 28.32 31.5889 26.5935 30.7398 25.8422C30.5074 25.6365 30.4826 25.2806 30.694 25.0531C32.3144 23.3119 33.6104 21.3112 34.0565 20.1023C34.2533 19.5683 33.8459 19.004 33.2719 19.004H31.6044C31.0548 19.004 30.7331 19.2013 30.5799 19.5154C29.2332 22.2749 28.078 23.4692 27.2694 24.1672C26.8167 24.5581 26.1107 24.2343 26.1107 23.6393C26.1107 22.4931 26.1107 21.0113 26.1107 19.9606C26.1107 19.451 25.6939 19.0387 25.1799 19.0387L22.1338 19.004C21.7504 19.004 21.5313 19.4381 21.7615 19.7424L22.2644 20.4644C22.4537 20.7145 22.5559 21.0189 22.5559 21.3312L22.5532 24.5826C22.5532 25.1482 21.8677 25.4245 21.4607 25.0282C20.0838 23.6873 18.8891 20.9491 18.459 19.6398C18.3346 19.2608 17.9796 19.0049 17.5771 19.004L15.9345 19C15.3183 19 14.8678 19.5842 15.0353 20.1725C16.5361 25.4405 19.6155 30.4522 25.1035 30.9956C25.6442 31.0489 26.1107 30.6135 26.1107 30.0745V28.3658C26.1107 27.8757 26.495 27.4545 26.9891 27.4421C27.0064 27.4416 27.0237 27.4416 27.041 27.4416C28.4926 27.4416 30.1182 29.5543 30.6869 30.5424C30.8504 30.8267 31.1561 31 31.4867 31H33.6962C34.3408 31 34.7545 30.3162 34.4439 29.7569Z" fill="#5C8EE6"/>
<rect x="0.5" y="0.5" width="49" height="49" stroke="#EBEBF0"/>
</svg>
