<svg width="840" height="104" viewBox="0 0 840 104" fill="none" xmlns="http://www.w3.org/2000/svg">
<path d="M8.82 83V45.26H1.08V41H21.24V45.26H13.5V83H8.82ZM29.4642 74.54L27.8442 83H23.5242L31.5642 41H38.3442L46.3842 83H41.7042L40.0842 74.54H29.4642ZM30.0642 70.52H39.4242L34.6842 46.28L30.0642 70.52ZM57.1767 64.76L54.7167 68.9V83H50.0367V41H54.7167V61.28L65.8767 41H70.6167L59.9967 60.14L70.9767 83H66.1767L57.1767 64.76ZM104.424 63.2L102.204 67.16V83H97.5839V67.16L95.4239 63.14L87.3839 83H82.5839L92.1839 58.82L82.8239 41H87.5039L97.5839 60.32V41H102.204V60.32L112.344 41H117.024L107.724 58.7L117.264 83H112.464L104.424 63.2ZM135.641 59.6V63.8H125.381V78.74H137.981V83H120.701V41H137.981V45.26H125.381V59.6H135.641ZM161.058 41C164.338 41 166.678 41.78 168.078 43.34C169.478 44.86 170.178 47.18 170.178 50.3V52.28C170.178 54.52 169.818 56.34 169.098 57.74C168.378 59.1 167.098 60.06 165.258 60.62C167.298 61.18 168.738 62.24 169.578 63.8C170.458 65.36 170.898 67.3 170.898 69.62V73.16C170.898 76.32 170.118 78.76 168.558 80.48C166.998 82.16 164.578 83 161.298 83H151.638V41H161.058ZM159.918 58.82C161.798 58.82 163.198 58.44 164.118 57.68C165.078 56.92 165.558 55.44 165.558 53.24V50.78C165.558 48.9 165.198 47.52 164.478 46.64C163.798 45.72 162.618 45.26 160.938 45.26H156.318V58.82H159.918ZM161.298 78.74C164.618 78.74 166.278 76.84 166.278 73.04V69.32C166.278 66.96 165.798 65.34 164.838 64.46C163.918 63.54 162.438 63.08 160.398 63.08H156.318V78.74H161.298ZM179.874 74.54L178.254 83H173.934L181.974 41H188.754L196.794 83H192.114L190.494 74.54H179.874ZM180.474 70.52H189.834L185.094 46.28L180.474 70.52ZM209.507 40.58C212.747 40.58 215.127 41.54 216.647 43.46C218.207 45.38 218.987 47.94 218.987 51.14V54.92H214.547V50.9C214.547 48.98 214.147 47.5 213.347 46.46C212.587 45.38 211.347 44.84 209.627 44.84C207.947 44.84 206.707 45.38 205.907 46.46C205.107 47.5 204.707 48.98 204.707 50.9V73.1C204.707 75.02 205.107 76.52 205.907 77.6C206.707 78.64 207.947 79.16 209.627 79.16C211.347 79.16 212.587 78.64 213.347 77.6C214.147 76.52 214.547 75.02 214.547 73.1V67.64H218.987V72.86C218.987 76.06 218.207 78.62 216.647 80.54C215.127 82.46 212.747 83.42 209.507 83.42C206.307 83.42 203.927 82.46 202.367 80.54C200.847 78.62 200.087 76.06 200.087 72.86V51.14C200.087 49.54 200.267 48.1 200.627 46.82C201.027 45.5 201.607 44.38 202.367 43.46C203.167 42.54 204.147 41.84 205.307 41.36C206.507 40.84 207.907 40.58 209.507 40.58ZM248.036 82.94H243.536L236.576 49.52V83H232.496V41H239.036L245.936 74.54L252.596 41H259.136V83H254.696V49.22L248.036 82.94ZM263.603 51.14C263.603 47.9 264.383 45.34 265.943 43.46C267.543 41.54 269.963 40.58 273.203 40.58C276.443 40.58 278.863 41.54 280.463 43.46C282.063 45.34 282.863 47.9 282.863 51.14V72.86C282.863 76.06 282.063 78.62 280.463 80.54C278.863 82.46 276.443 83.42 273.203 83.42C269.963 83.42 267.543 82.46 265.943 80.54C264.383 78.62 263.603 76.06 263.603 72.86V51.14ZM268.223 73.1C268.223 75.02 268.623 76.52 269.423 77.6C270.263 78.64 271.523 79.16 273.203 79.16C274.923 79.16 276.183 78.64 276.982 77.6C277.783 76.52 278.183 75.02 278.183 73.1V50.9C278.183 48.98 277.783 47.5 276.982 46.46C276.183 45.38 274.923 44.84 273.203 44.84C271.523 44.84 270.263 45.38 269.423 46.46C268.623 47.5 268.223 48.98 268.223 50.9V73.1ZM307.803 63.2L305.583 67.16V83H300.963V67.16L298.803 63.14L290.763 83H285.963L295.563 58.82L286.203 41H290.883L300.963 60.32V41H305.583V60.32L315.723 41H320.403L311.103 58.7L320.643 83H315.843L307.803 63.2ZM339.02 59.6V63.8H328.76V78.74H341.36V83H324.08V41H341.36V45.26H328.76V59.6H339.02ZM352.121 83V45.26H344.381V41H364.541V45.26H356.801V83H352.121ZM386.521 40.58C389.761 40.58 392.141 41.54 393.661 43.46C395.221 45.38 396.001 47.94 396.001 51.14V52.22C396.001 54.38 395.561 56.22 394.681 57.74C393.841 59.22 392.561 60.28 390.841 60.92C392.641 61.52 393.941 62.58 394.741 64.1C395.581 65.62 396.001 67.44 396.001 69.56V72.86C396.001 76.06 395.221 78.62 393.661 80.54C392.141 82.46 389.761 83.42 386.521 83.42C383.321 83.42 380.941 82.46 379.381 80.54C377.861 78.62 377.101 76.06 377.101 72.86V68.78H381.481V73.1C381.481 75.02 381.881 76.52 382.681 77.6C383.481 78.64 384.721 79.16 386.401 79.16C388.121 79.16 389.361 78.62 390.121 77.54C390.921 76.46 391.321 74.86 391.321 72.74V69.44C391.321 65.28 389.521 63.2 385.921 63.2H383.941V59H386.161C387.721 59 388.961 58.5 389.881 57.5C390.841 56.5 391.321 55.08 391.321 53.24V51.32C391.321 49.16 390.921 47.54 390.121 46.46C389.361 45.38 388.121 44.84 386.401 44.84C384.721 44.84 383.481 45.38 382.681 46.46C381.881 47.5 381.481 48.98 381.481 50.9V53.72H377.161V51.08C377.161 47.84 377.901 45.28 379.381 43.4C380.901 41.52 383.281 40.58 386.521 40.58ZM405.285 74.54L403.665 83H399.345L407.385 41H414.165L422.205 83H417.525L415.905 74.54H405.285ZM405.885 70.52H415.245L410.505 46.28L405.885 70.52ZM436.897 63.62L430.717 83H425.857V41H429.997V72.32L433.717 60.74L440.437 41H445.657V83H441.457V49.58L436.897 63.62ZM455.088 64.1V83H450.408V41H455.088V59.9H465.408V41H470.088V83H465.408V64.1H455.088ZM481.32 83V45.26H473.58V41H493.74V45.26H486V83H481.32ZM512.164 59.6V63.8H501.904V78.74H514.504V83H497.224V41H514.504V45.26H501.904V59.6H512.164ZM528.025 41C531.345 41 533.745 41.92 535.225 43.76C536.705 45.56 537.445 48.06 537.445 51.26V56.3C537.445 59.66 536.645 62.2 535.045 63.92C533.485 65.6 531.025 66.44 527.665 66.44H523.525V83H518.845V41H528.025ZM527.665 62.24C529.425 62.24 530.725 61.82 531.565 60.98C532.405 60.1 532.825 58.64 532.825 56.6V51.02C532.825 49.1 532.445 47.66 531.685 46.7C530.965 45.74 529.745 45.26 528.025 45.26H523.525V62.24H527.665ZM556.051 59.6V63.8H545.791V78.74H558.391V83H541.111V41H558.391V45.26H545.791V59.6H556.051ZM571.792 40.58C575.032 40.58 577.412 41.54 578.932 43.46C580.492 45.38 581.272 47.94 581.272 51.14V54.92H576.832V50.9C576.832 48.98 576.432 47.5 575.632 46.46C574.872 45.38 573.632 44.84 571.912 44.84C570.232 44.84 568.992 45.38 568.192 46.46C567.392 47.5 566.992 48.98 566.992 50.9V73.1C566.992 75.02 567.392 76.52 568.192 77.6C568.992 78.64 570.232 79.16 571.912 79.16C573.632 79.16 574.872 78.64 575.632 77.6C576.432 76.52 576.832 75.02 576.832 73.1V67.64H581.272V72.86C581.272 76.06 580.492 78.62 578.932 80.54C577.412 82.46 575.032 83.42 571.792 83.42C568.592 83.42 566.212 82.46 564.652 80.54C563.132 78.62 562.372 76.06 562.372 72.86V51.14C562.372 49.54 562.552 48.1 562.912 46.82C563.312 45.5 563.892 44.38 564.652 43.46C565.452 42.54 566.432 41.84 567.592 41.36C568.792 40.84 570.192 40.58 571.792 40.58ZM585.165 51.14C585.165 47.9 585.945 45.34 587.505 43.46C589.105 41.54 591.525 40.58 594.765 40.58C598.005 40.58 600.425 41.54 602.025 43.46C603.625 45.34 604.425 47.9 604.425 51.14V72.86C604.425 76.06 603.625 78.62 602.025 80.54C600.425 82.46 598.005 83.42 594.765 83.42C591.525 83.42 589.105 82.46 587.505 80.54C585.945 78.62 585.165 76.06 585.165 72.86V51.14ZM589.785 73.1C589.785 75.02 590.185 76.52 590.985 77.6C591.825 78.64 593.085 79.16 594.765 79.16C596.485 79.16 597.745 78.64 598.545 77.6C599.345 76.52 599.745 75.02 599.745 73.1V50.9C599.745 48.98 599.345 47.5 598.545 46.46C597.745 45.38 596.485 44.84 594.765 44.84C593.085 44.84 591.825 45.38 590.985 46.46C590.185 47.5 589.785 48.98 589.785 50.9V73.1ZM618.265 41C621.545 41 623.885 41.78 625.285 43.34C626.685 44.86 627.385 47.18 627.385 50.3V52.28C627.385 54.52 627.025 56.34 626.305 57.74C625.585 59.1 624.305 60.06 622.465 60.62C624.505 61.18 625.945 62.24 626.785 63.8C627.665 65.36 628.105 67.3 628.105 69.62V73.16C628.105 76.32 627.325 78.76 625.765 80.48C624.205 82.16 621.785 83 618.505 83H608.845V41H618.265ZM617.125 58.82C619.005 58.82 620.405 58.44 621.325 57.68C622.285 56.92 622.765 55.44 622.765 53.24V50.78C622.765 48.9 622.405 47.52 621.685 46.64C621.005 45.72 619.825 45.26 618.145 45.26H613.525V58.82H617.125ZM618.505 78.74C621.825 78.74 623.485 76.84 623.485 73.04V69.32C623.485 66.96 623.005 65.34 622.045 64.46C621.125 63.54 619.645 63.08 617.605 63.08H613.525V78.74H618.505ZM637.081 74.54L635.461 83H631.141L639.181 41H645.961L654.001 83H649.321L647.701 74.54H637.081ZM637.681 70.52H647.041L642.301 46.28L637.681 70.52ZM664.074 83V45.26H656.334V41H676.494V45.26H668.754V83H664.074ZM688.798 57.56C692.158 57.56 694.618 58.42 696.178 60.14C697.778 61.82 698.578 64.34 698.578 67.7V72.74C698.578 75.94 697.818 78.46 696.298 80.3C694.818 82.1 692.438 83 689.158 83H679.978V41H684.658V57.56H688.798ZM689.158 78.74C690.878 78.74 692.098 78.26 692.818 77.3C693.578 76.34 693.958 74.9 693.958 72.98V67.4C693.958 65.36 693.538 63.92 692.698 63.08C691.858 62.2 690.558 61.76 688.798 61.76H684.658V78.74H689.158ZM707.33 54.32V60.14H702.83V54.32H707.33ZM707.33 77.18V83H702.83V77.18H707.33Z" fill="#292D33"/>
<rect width="150" height="2" fill="#5C8EE6"/>
</svg>
