<svg width="140" height="44" viewBox="0 0 140 44" fill="none" xmlns="http://www.w3.org/2000/svg">
<g clip-path="url(#clip0_3272_718)">
<path fill-rule="evenodd" clip-rule="evenodd" d="M21.9928 4.89351C24.2857 4.89351 26.4733 5.34481 28.4715 6.16361V12.3539V21.8184C28.4715 25.3669 25.5949 28.2436 22.0465 28.2436C20.5375 28.2436 19.15 27.7235 18.0536 26.8527V32.5405C19.2966 33.0038 20.6421 33.2569 22.0465 33.2569C29.0248 33.2569 33.5146 27.7473 33.5146 21.0594V3.25613C30.1638 1.19127 26.2173 0 21.9928 0C9.84658 0 0 9.84658 0 21.9928C0 28.9293 3.21131 35.1156 8.22825 39.1466V32.1397C6.13243 29.3013 4.89351 25.7918 4.89351 21.9928C4.89351 12.5492 12.5492 4.89351 21.9928 4.89351Z" fill="#292D33"/>
<path fill-rule="evenodd" clip-rule="evenodd" d="M22.0619 39.1065C19.7688 39.1065 17.5811 38.6552 15.583 37.8364V31.6461V22.1815C15.583 18.6331 18.4597 15.7563 22.0082 15.7563C23.5171 15.7563 24.9044 16.2765 26.0008 17.1473V11.4594C24.7578 10.9962 23.4125 10.7431 22.0082 10.7431C15.0299 10.7431 10.54 16.2527 10.54 22.9406V40.7438C13.8906 42.8087 17.8371 44 22.0619 44C34.2081 44 44.0546 34.1534 44.0546 22.0072C44.0546 15.0707 40.8433 8.88436 35.8264 4.85339V11.8603C37.9222 14.6987 39.1611 18.2082 39.1611 22.0072C39.1611 31.4508 31.5055 39.1065 22.0619 39.1065Z" fill="#5C8EE6"/>
<path d="M71.3034 22.5536C71.3034 22.6595 71.2612 22.7443 71.1975 22.8079C71.1338 22.8716 71.0279 22.9138 70.922 22.9138H68.6759C68.57 22.9138 68.4852 22.8716 68.4215 22.8079C68.3582 22.7443 68.2945 22.6595 68.2734 22.5536L67.2985 18.5275H62.4248L61.4499 22.5536C61.4288 22.6595 61.3655 22.7443 61.3018 22.8079C61.2381 22.8716 61.1533 22.9138 61.0474 22.9138H58.8013C58.6954 22.9138 58.5895 22.8716 58.5258 22.8079C58.4622 22.7443 58.4199 22.6595 58.4199 22.5536C58.4199 22.5324 58.4199 22.5324 58.441 22.5113C58.441 22.4902 58.441 22.4688 58.441 22.4476L61.9164 9.16164C62.0435 8.67402 62.2342 8.27152 62.4671 7.99603C62.7003 7.72055 62.9758 7.48762 63.2513 7.33916C63.5268 7.19102 63.8023 7.10623 64.0989 7.06367C64.3744 7.02144 64.6287 7 64.8617 7C65.0949 7 65.349 7.02144 65.6456 7.06367C65.921 7.10623 66.218 7.19102 66.4934 7.33916C66.7689 7.48762 67.023 7.72055 67.2562 7.99603C67.4892 8.27152 67.6799 8.67402 67.8072 9.16164L71.2823 22.4476C71.2823 22.4688 71.2823 22.4902 71.3034 22.5113C71.3034 22.5324 71.3034 22.5324 71.3034 22.5536ZM65.2008 9.81852C65.1794 9.69117 65.1371 9.60638 65.0949 9.54304C65.0524 9.50048 64.9676 9.47936 64.8617 9.47936C64.7558 9.47936 64.671 9.50048 64.6287 9.54304C64.5862 9.60638 64.5439 9.69117 64.5225 9.81852L62.9969 16.1118H66.7264L65.2008 9.81852Z" fill="#292D33"/>
<path d="M81.7926 22.3417C81.7926 22.4902 81.7712 22.5961 81.7078 22.6594C81.6441 22.7231 81.5171 22.7653 81.3687 22.7868C81.2205 22.829 80.9873 22.8716 80.7118 22.8927C80.4152 22.9349 80.0975 22.9775 79.7583 22.9986C79.4191 23.0197 79.0803 23.0408 78.72 23.0623C78.3598 23.0834 78.0417 23.0834 77.7662 23.0834C77.0671 23.0834 76.4314 23.0197 75.8382 22.9138C75.2446 22.8079 74.7362 22.575 74.2912 22.2569C73.8461 21.9392 73.5073 21.5153 73.2529 20.9432C72.9985 20.3711 72.8715 19.6505 72.8715 18.7393V7.59352C72.8715 7.48761 72.9137 7.38139 72.9985 7.29692C73.0833 7.21213 73.1892 7.16958 73.2955 7.16958H75.3931C75.499 7.16958 75.6049 7.21213 75.6897 7.29692C75.7745 7.38139 75.8171 7.48761 75.8171 7.59352V18.7393C75.8171 19.4387 75.9441 19.926 76.177 20.1804C76.4103 20.4344 76.8553 20.5618 77.4696 20.5618H81.3687C81.4746 20.5618 81.5805 20.604 81.6653 20.6888C81.75 20.7736 81.7926 20.8795 81.7926 20.9854V22.3417ZM86.751 22.4902C86.751 22.5961 86.7085 22.702 86.6237 22.7868C86.5392 22.8716 86.433 22.9138 86.3271 22.9138H84.2294C84.1235 22.9138 84.0176 22.8716 83.9328 22.7868C83.848 22.702 83.8055 22.5961 83.8055 22.4902V7.57241C83.8055 7.46618 83.848 7.36027 83.9328 7.27548C84.0176 7.21214 84.1235 7.16958 84.2294 7.16958H86.3271C86.433 7.16958 86.5392 7.21214 86.6237 7.27548C86.7085 7.36027 86.751 7.46618 86.751 7.57241V22.4902ZM101.626 22.5535C101.626 22.6594 101.584 22.7442 101.52 22.8079C101.457 22.8716 101.351 22.9138 101.245 22.9138H98.9987C98.8928 22.9138 98.808 22.8716 98.7444 22.8079C98.681 22.7442 98.6173 22.6594 98.5962 22.5535L97.6213 18.5275H92.7477L91.7731 22.5535C91.7516 22.6594 91.6883 22.7442 91.6246 22.8079C91.561 22.8716 91.4765 22.9138 91.3703 22.9138H89.1241C89.0182 22.9138 88.9123 22.8716 88.8487 22.8079C88.7853 22.7442 88.7428 22.6594 88.7428 22.5535C88.7428 22.5324 88.7428 22.5324 88.7639 22.5113C88.7639 22.4902 88.7639 22.4687 88.7639 22.4476L92.2393 9.16164C92.3663 8.67402 92.557 8.27152 92.7902 7.99603C93.0232 7.72055 93.2986 7.48762 93.5741 7.33916C93.8496 7.19102 94.1251 7.10623 94.4217 7.06367C94.6972 7.02144 94.9516 7 95.1845 7C95.4177 7 95.6718 7.02144 95.9687 7.06367C96.2442 7.10623 96.5408 7.19102 96.8163 7.33916C97.0918 7.48762 97.3458 7.72055 97.5791 7.99603C97.812 8.27152 98.003 8.67402 98.13 9.16164L101.605 22.4476C101.605 22.4687 101.605 22.4902 101.626 22.5113C101.626 22.5324 101.626 22.5324 101.626 22.5535ZM95.5236 9.81851C95.5025 9.69117 95.46 9.60638 95.4177 9.54303C95.3752 9.50047 95.2904 9.47936 95.1845 9.47936C95.0786 9.47936 94.9938 9.50047 94.9516 9.54303C94.909 9.60638 94.8668 9.69117 94.8457 9.81851L93.3198 16.1118H97.0492L95.5236 9.81851ZM115.527 22.0662C115.527 22.2995 115.442 22.5113 115.294 22.6594C115.124 22.829 114.913 22.9138 114.679 22.9138H112.539C112.285 22.9138 112.052 22.8716 111.84 22.8079C111.607 22.7442 111.416 22.5324 111.246 22.151L106.542 11.8314C106.479 11.7255 106.415 11.6618 106.352 11.6618C106.288 11.6618 106.246 11.7255 106.246 11.8314V22.4902C106.246 22.5961 106.203 22.702 106.14 22.7868C106.055 22.8716 105.949 22.9138 105.843 22.9138H104.042C103.936 22.9138 103.83 22.8716 103.745 22.7868C103.661 22.702 103.618 22.5961 103.618 22.4902V8.01714C103.618 7.78422 103.703 7.57241 103.872 7.40283C104.021 7.25437 104.233 7.16958 104.466 7.16958H106.754C106.987 7.16958 107.157 7.21213 107.305 7.29692C107.433 7.38139 107.56 7.57241 107.687 7.84757L112.624 18.7393C112.666 18.8452 112.73 18.9089 112.793 18.9089C112.857 18.9089 112.899 18.8452 112.899 18.7182V7.57241C112.899 7.29692 113.027 7.16958 113.302 7.16958H115.124C115.4 7.16958 115.527 7.29692 115.527 7.57241V22.0662ZM128.071 22.2569C128.071 22.4054 128.029 22.5113 127.944 22.575C127.86 22.6383 127.754 22.702 127.605 22.7442C127.521 22.7653 127.372 22.8079 127.181 22.829C126.97 22.8716 126.715 22.9138 126.419 22.9564C126.122 22.9775 125.783 23.0197 125.423 23.0408C125.063 23.0623 124.66 23.0834 124.257 23.0834C123.621 23.0834 122.943 22.9986 122.244 22.8079C121.545 22.6172 120.888 22.278 120.316 21.7907C119.722 21.3034 119.256 20.6466 118.854 19.8201C118.472 18.9937 118.282 17.9128 118.282 16.5991V13.4843C118.282 12.1494 118.472 11.0686 118.854 10.221C119.256 9.39457 119.722 8.7377 120.316 8.2504C120.888 7.76311 121.545 7.44506 122.244 7.25436C122.943 7.08478 123.621 7 124.257 7C124.66 7 125.063 7.02144 125.423 7.04255C125.783 7.06367 126.122 7.10623 126.419 7.12734C126.715 7.16958 126.97 7.21213 127.181 7.25436C127.372 7.29692 127.521 7.31804 127.605 7.33916C127.754 7.38139 127.86 7.42394 127.944 7.48761C128.029 7.55096 128.071 7.67831 128.071 7.82645V9.24643C128.071 9.37345 128.05 9.47936 127.987 9.56415C127.923 9.64894 127.796 9.69117 127.648 9.69117H127.605C127.415 9.67005 127.203 9.64894 126.948 9.62782C126.673 9.60638 126.397 9.60638 126.101 9.58526C125.804 9.56415 125.507 9.56415 125.19 9.54303C124.872 9.52191 124.575 9.52192 124.299 9.52192C123.855 9.52192 123.431 9.58527 123.071 9.71262C122.689 9.86075 122.371 10.0726 122.096 10.3695C121.82 10.6872 121.609 11.0897 121.46 11.5984C121.312 12.1069 121.227 12.7426 121.227 13.4843V16.5991C121.227 17.3408 121.312 17.9554 121.46 18.4638C121.609 18.9725 121.82 19.3751 122.096 19.6931C122.371 20.0108 122.689 20.2226 123.071 20.35C123.431 20.4981 123.855 20.5618 124.299 20.5618C124.575 20.5618 124.872 20.5618 125.19 20.5407C125.507 20.5192 125.804 20.5192 126.101 20.4981C126.397 20.477 126.673 20.4559 126.948 20.4344C127.203 20.4133 127.415 20.4133 127.605 20.3922H127.648C127.796 20.3922 127.923 20.4344 127.987 20.5192C128.05 20.604 128.071 20.7099 128.071 20.8373V22.2569ZM140.001 22.3417C140.001 22.4902 139.98 22.5961 139.917 22.6594C139.853 22.7231 139.726 22.7653 139.578 22.7868C139.408 22.8079 139.218 22.8501 139.027 22.8716C138.815 22.9138 138.56 22.9563 138.264 22.9775C137.946 22.9986 137.586 23.0408 137.162 23.0623C136.717 23.0834 136.187 23.0834 135.551 23.0834C134.852 23.0834 134.217 23.0197 133.623 22.9138C133.03 22.8079 132.5 22.575 132.076 22.2569C131.631 21.9392 131.271 21.5153 131.017 20.9432C130.763 20.3711 130.635 19.6505 130.635 18.7393V11.3441C130.635 10.4328 130.763 9.71261 131.017 9.1402C131.271 8.56812 131.631 8.12305 132.076 7.80533C132.5 7.48761 133.03 7.27548 133.623 7.16958C134.217 7.06367 134.852 7 135.551 7C136.187 7 136.717 7 137.162 7.02144C137.586 7.04255 137.946 7.08478 138.264 7.10622C138.56 7.12734 138.815 7.16958 139.027 7.19102C139.218 7.23325 139.408 7.27548 139.578 7.29692C139.726 7.31804 139.853 7.36027 139.917 7.42394C139.98 7.48761 140.001 7.59352 140.001 7.74166V9.09797C140.001 9.20387 139.959 9.30978 139.874 9.39457C139.79 9.47936 139.683 9.52192 139.578 9.52192H135.255C134.64 9.52192 134.195 9.64894 133.962 9.90331C133.708 10.1574 133.581 10.6447 133.581 11.3441V13.6327H139.323C139.429 13.6327 139.535 13.675 139.62 13.7598C139.705 13.8446 139.747 13.9505 139.747 14.0564V15.5819C139.747 15.6882 139.705 15.7941 139.62 15.8789C139.535 15.9636 139.429 16.0059 139.323 16.0059H133.581V18.7393C133.581 19.4387 133.708 19.926 133.962 20.1804C134.195 20.4344 134.64 20.5618 135.255 20.5618H139.578C139.683 20.5618 139.79 20.604 139.874 20.6888C139.959 20.7736 140.001 20.8795 140.001 20.9854V22.3417Z" fill="#292D33"/>
<path d="M65.8755 29.9868C65.8755 30.5816 65.7673 31.0816 65.5646 31.4867C65.3486 31.8921 65.065 32.2167 64.6998 32.4597C64.3487 32.7167 63.9299 32.8921 63.4702 32.9866C62.9976 33.0948 62.4976 33.149 61.9703 33.149C61.7949 33.149 61.5922 33.1354 61.3489 33.1218C61.1192 33.1084 60.9165 33.1084 60.7677 33.0948V36.6215C60.7677 36.6891 60.7407 36.7567 60.7001 36.8109C60.6462 36.8648 60.5786 36.8918 60.511 36.8918H59.1599C59.0924 36.8918 59.0248 36.8648 58.9705 36.8109C58.9166 36.7567 58.8896 36.6891 58.8896 36.6215V27.3249C58.8896 27.1897 58.9303 27.0952 59.0111 27.0276C59.0787 26.9737 59.1869 26.9331 59.322 26.9198C59.6732 26.8655 60.0787 26.8249 60.538 26.7846C60.9977 26.7573 61.484 26.744 61.984 26.744C62.4976 26.744 62.9976 26.7979 63.4702 26.8925C63.9299 26.987 64.3487 27.1628 64.6998 27.4061C65.065 27.6494 65.3486 27.9736 65.5646 28.3654C65.7673 28.7709 65.8755 29.2708 65.8755 29.8653V29.9868ZM63.9975 29.8517C63.9975 29.2845 63.8351 28.879 63.4975 28.6494C63.1597 28.406 62.6461 28.2845 61.9703 28.2845C61.9028 28.2845 61.8082 28.2845 61.7 28.2845C61.5785 28.2978 61.4704 28.2978 61.3489 28.2978C61.2274 28.3115 61.1192 28.3115 61.0247 28.3115C60.9165 28.3248 60.8353 28.3248 60.7677 28.3385V31.5679C60.8219 31.5679 60.9028 31.5679 61.0247 31.5679C61.1328 31.5816 61.2543 31.5816 61.3758 31.5816C61.4977 31.5949 61.6055 31.5949 61.7273 31.5949C61.8352 31.6085 61.9164 31.6085 61.9703 31.6085C62.7 31.6085 63.2272 31.4734 63.5378 31.2031C63.8487 30.9328 63.9975 30.5274 63.9975 29.9735V29.8517ZM74.6452 36.7297C74.6452 36.8379 74.5913 36.8918 74.4831 36.8918H72.8344C72.7669 36.8918 72.7129 36.8648 72.6723 36.8109C72.6321 36.7567 72.6048 36.6891 72.5645 36.6215L70.6185 33.0272H70.4295C70.2537 33.0272 70.0374 33.0139 69.8077 33.0003C69.578 32.9866 69.3753 32.9866 69.2268 32.9733V36.6215C69.2268 36.6891 69.1995 36.7567 69.1593 36.8109C69.105 36.8648 69.0374 36.8918 68.9699 36.8918H67.6187C67.5512 36.8918 67.4836 36.8648 67.4297 36.8109C67.3754 36.7567 67.3485 36.6891 67.3485 36.6215V27.3249C67.3485 27.1897 67.3891 27.0952 67.47 27.0276C67.5375 26.9737 67.6457 26.9331 67.7809 26.9198C68.132 26.8655 68.5375 26.8249 68.9971 26.7846C69.4565 26.7573 69.9428 26.744 70.4428 26.744C70.9564 26.744 71.4564 26.7979 71.9294 26.8925C72.3887 27.0007 72.8075 27.1764 73.159 27.4061C73.5238 27.6358 73.8074 27.9467 74.0238 28.3385C74.2265 28.7302 74.3343 29.2169 74.3343 29.7977V29.9192C74.3343 30.6356 74.1722 31.2301 73.8344 31.6761C73.5102 32.1218 73.0641 32.4597 72.4969 32.676L74.6183 36.6215C74.6316 36.6488 74.6452 36.6891 74.6452 36.7297ZM72.4563 29.7977C72.4563 29.2845 72.2942 28.9196 71.9563 28.6896C71.6185 28.46 71.1049 28.3521 70.4295 28.3521C70.3619 28.3521 70.267 28.3521 70.1592 28.3521C70.0374 28.3654 69.9295 28.3654 69.8077 28.3654C69.6862 28.3791 69.578 28.3791 69.4835 28.3791C69.3753 28.3924 69.2944 28.3924 69.2268 28.406V31.4464C69.2808 31.4464 69.362 31.4464 69.4835 31.4464C69.5917 31.4597 69.7132 31.4598 69.8347 31.4598C69.9565 31.4734 70.0643 31.4734 70.1862 31.4734C70.2943 31.4867 70.3752 31.4867 70.4295 31.4867C71.1318 31.4867 71.6454 31.3789 71.9697 31.1492C72.2942 30.9195 72.4563 30.5141 72.4563 29.9192V29.7977Z" fill="#5C8EE6"/>
<path d="M83.3204 32.7842C83.3204 33.5272 83.2256 34.176 83.0365 34.7029C82.8338 35.2298 82.5771 35.6622 82.2256 36.0001C81.8881 36.3379 81.4827 36.5946 81.0097 36.7567C80.5503 36.9188 80.0367 37 79.4828 37C78.9153 37 78.4016 36.9188 77.9423 36.7567C77.4693 36.5946 77.0639 36.3379 76.7263 36.0001C76.3885 35.6622 76.1182 35.2298 75.9288 34.7029C75.7261 34.176 75.6315 33.5272 75.6315 32.7842V30.9598C75.6315 30.2168 75.7261 29.5817 75.9288 29.0411C76.1182 28.5142 76.3885 28.0682 76.7263 27.7303C77.0639 27.3925 77.4693 27.1495 77.9423 26.987C78.4016 26.8249 78.9153 26.744 79.4828 26.744C80.0367 26.744 80.5503 26.8249 81.0097 26.987C81.4827 27.1495 81.8881 27.3925 82.2256 27.7303C82.5771 28.0682 82.8338 28.5142 83.0365 29.0411C83.2256 29.5817 83.3204 30.2168 83.3204 30.9598V32.7842ZM81.442 30.9598C81.442 30.0544 81.2799 29.406 80.9557 28.9869C80.6448 28.5818 80.1449 28.3791 79.4828 28.3791C78.8071 28.3791 78.3071 28.5818 77.9962 28.9869C77.672 29.406 77.5099 30.0544 77.5099 30.9598V32.7842C77.5099 33.6893 77.672 34.3381 77.9962 34.7435C78.3071 35.1623 78.8071 35.365 79.4828 35.365C80.1449 35.365 80.6448 35.1623 80.9557 34.7435C81.2799 34.3381 81.442 33.6893 81.442 32.7842V30.9598ZM92.3601 32.8651C92.3601 34.2029 91.9953 35.2298 91.252 35.9325C90.5223 36.6488 89.4685 37 88.1174 37C87.8604 37 87.6174 37 87.3471 36.9864C87.0768 36.9731 86.8202 36.9594 86.5769 36.9461C86.3199 36.9324 86.1039 36.9055 85.9011 36.8918C85.6984 36.8785 85.5363 36.8512 85.4418 36.8379C85.3203 36.8243 85.2391 36.784 85.1851 36.7164C85.1176 36.6488 85.0903 36.554 85.0903 36.4188V27.3249C85.0903 27.1897 85.1176 27.0952 85.1851 27.0276C85.2391 26.9601 85.3203 26.9198 85.4418 26.9061C85.5363 26.8925 85.6984 26.8655 85.9011 26.8522C86.1039 26.8386 86.3199 26.8116 86.5769 26.798C86.8202 26.7846 87.0768 26.771 87.3471 26.7573C87.6174 26.744 87.8604 26.744 88.1174 26.744C89.4685 26.744 90.5223 27.0952 91.252 27.7979C91.9953 28.5142 92.3601 29.5411 92.3601 30.8789V32.8651ZM90.482 30.8789C90.482 30.3789 90.4278 29.9599 90.3063 29.6356C90.1848 29.2978 90.009 29.0411 89.8063 28.8384C89.59 28.6494 89.3333 28.5142 89.0497 28.433C88.7525 28.3654 88.4416 28.3248 88.1037 28.3248C87.8471 28.3248 87.6307 28.3248 87.455 28.3385C87.2795 28.3521 87.1174 28.3521 86.9686 28.3654V35.3919C87.1174 35.4056 87.2795 35.4056 87.455 35.4189C87.6307 35.4325 87.8471 35.4325 88.1037 35.4325C88.4416 35.4325 88.7525 35.3919 89.0497 35.3111C89.3333 35.2435 89.59 35.1083 89.8063 34.9056C90.009 34.7165 90.1848 34.4596 90.3063 34.1217C90.4278 33.7975 90.482 33.3787 90.482 32.8788V30.8789ZM101.468 33.176C101.468 33.892 101.373 34.5002 101.197 34.9865C101.008 35.4732 100.751 35.8649 100.427 36.1622C100.089 36.4594 99.6975 36.6758 99.2514 36.7973C98.7921 36.9325 98.2921 37 97.7515 37C97.2113 37 96.7113 36.9325 96.2653 36.7973C95.8059 36.6758 95.4141 36.4594 95.0896 36.1622C94.7517 35.8649 94.4951 35.4732 94.3193 34.9865C94.1303 34.5002 94.0357 33.892 94.0357 33.176V27.1088C94.0357 27.0413 94.0627 26.9737 94.117 26.9198C94.1709 26.8792 94.2384 26.8522 94.306 26.8522H95.6438C95.7114 26.8522 95.779 26.8792 95.8329 26.9198C95.8868 26.9737 95.9141 27.0413 95.9141 27.1088V33.1894C95.9141 33.5678 95.9411 33.9057 95.995 34.1893C96.0492 34.4732 96.1438 34.7165 96.2922 34.9056C96.4274 35.0947 96.6165 35.2298 96.8465 35.3244C97.0761 35.4189 97.3867 35.4595 97.7515 35.4595C98.1167 35.4595 98.4139 35.4189 98.6569 35.3244C98.8866 35.2298 99.076 35.0947 99.2245 34.9056C99.3596 34.7165 99.4541 34.4732 99.5084 34.1893C99.5623 33.9057 99.5893 33.5678 99.5893 33.1894V27.1088C99.5893 27.0413 99.6166 26.9737 99.6705 26.9198C99.7244 26.8792 99.792 26.8522 99.8596 26.8522H101.197C101.265 26.8522 101.333 26.8792 101.386 26.9198C101.441 26.9737 101.468 27.0413 101.468 27.1088V33.176ZM109.4 36.4731C109.4 36.5676 109.373 36.6352 109.318 36.6758C109.264 36.7164 109.197 36.7567 109.102 36.784C109.048 36.7973 108.953 36.8243 108.832 36.8379C108.697 36.8649 108.535 36.8918 108.346 36.9188C108.156 36.9325 107.94 36.9594 107.711 36.9731C107.481 36.9864 107.224 37 106.967 37C106.562 37 106.129 36.9461 105.683 36.8243C105.238 36.7028 104.819 36.4864 104.454 36.1758C104.076 35.8649 103.778 35.4462 103.521 34.9189C103.278 34.392 103.157 33.703 103.157 32.8651V30.8789C103.157 30.0274 103.278 29.3384 103.521 28.7978C103.778 28.2709 104.076 27.8521 104.454 27.5412C104.819 27.2303 105.238 27.0276 105.683 26.9061C106.129 26.798 106.562 26.744 106.967 26.744C107.224 26.744 107.481 26.7573 107.711 26.771C107.94 26.7846 108.156 26.8116 108.346 26.8249C108.535 26.8522 108.697 26.8792 108.832 26.9061C108.953 26.9331 109.048 26.9467 109.102 26.9601C109.197 26.987 109.264 27.0143 109.318 27.0546C109.373 27.0952 109.4 27.1764 109.4 27.271V28.1764C109.4 28.2572 109.386 28.3248 109.345 28.3791C109.305 28.433 109.224 28.46 109.129 28.46H109.102C108.98 28.4466 108.845 28.433 108.683 28.4194C108.508 28.406 108.332 28.406 108.143 28.3924C107.954 28.3791 107.764 28.3791 107.562 28.3654C107.359 28.3521 107.17 28.3521 106.994 28.3521C106.711 28.3521 106.44 28.3924 106.211 28.4736C105.967 28.5681 105.765 28.7033 105.589 28.8924C105.413 29.0951 105.278 29.352 105.183 29.6763C105.089 30.0005 105.035 30.4059 105.035 30.8789V32.8651C105.035 33.3381 105.089 33.7299 105.183 34.0541C105.278 34.3787 105.413 34.6353 105.589 34.838C105.765 35.0408 105.967 35.1759 106.211 35.2568C106.44 35.3513 106.711 35.3919 106.994 35.3919C107.17 35.3919 107.359 35.3919 107.562 35.3786C107.764 35.365 107.954 35.365 108.143 35.3513C108.332 35.338 108.508 35.3244 108.683 35.3111C108.845 35.2974 108.98 35.2974 109.102 35.2838H109.129C109.224 35.2838 109.305 35.311 109.345 35.365C109.386 35.4189 109.4 35.4865 109.4 35.5677V36.4731ZM117.507 28.1764C117.507 28.2439 117.48 28.3115 117.426 28.3521C117.372 28.3924 117.304 28.4194 117.237 28.4194H114.872V36.6216C114.872 36.6891 114.845 36.7567 114.791 36.811C114.737 36.8649 114.669 36.8918 114.602 36.8918H113.264C113.197 36.8918 113.129 36.8649 113.075 36.811C113.021 36.7567 112.994 36.6891 112.994 36.6216V28.4194H110.629C110.562 28.4194 110.494 28.3924 110.44 28.3521C110.386 28.3115 110.359 28.2439 110.359 28.1764V27.1088C110.359 27.0413 110.386 26.9737 110.44 26.9198C110.494 26.8792 110.562 26.8522 110.629 26.8522H117.237C117.304 26.8522 117.372 26.8792 117.426 26.9198C117.48 26.9737 117.507 27.0413 117.507 27.1088V28.1764ZM120.737 36.6216C120.737 36.6891 120.709 36.7567 120.655 36.811C120.602 36.8649 120.534 36.8918 120.466 36.8918H119.129C119.061 36.8918 118.993 36.8649 118.939 36.811C118.885 36.7567 118.858 36.6891 118.858 36.6216V27.1088C118.858 27.0413 118.885 26.9737 118.939 26.9198C118.993 26.8792 119.061 26.8522 119.129 26.8522H120.466C120.534 26.8522 120.602 26.8792 120.655 26.9198C120.709 26.9737 120.737 27.0413 120.737 27.1088V36.6216ZM130.182 32.7842C130.182 33.5272 130.087 34.176 129.898 34.7029C129.695 35.2298 129.438 35.6622 129.087 36.0001C128.749 36.3379 128.344 36.5946 127.871 36.7567C127.412 36.9188 126.898 37 126.344 37C125.777 37 125.263 36.9188 124.804 36.7567C124.331 36.5946 123.926 36.3379 123.588 36.0001C123.25 35.6622 122.98 35.2298 122.79 34.7029C122.588 34.176 122.493 33.5272 122.493 32.7842V30.9598C122.493 30.2168 122.588 29.5817 122.79 29.0411C122.98 28.5142 123.25 28.0682 123.588 27.7303C123.926 27.3925 124.331 27.1495 124.804 26.987C125.263 26.8249 125.777 26.744 126.344 26.744C126.898 26.744 127.412 26.8249 127.871 26.987C128.344 27.1495 128.749 27.3925 129.087 27.7303C129.438 28.0682 129.695 28.5142 129.898 29.0411C130.087 29.5817 130.182 30.2168 130.182 30.9598V32.7842ZM128.303 30.9598C128.303 30.0544 128.141 29.406 127.817 28.9869C127.506 28.5818 127.006 28.3791 126.344 28.3791C125.669 28.3791 125.169 28.5818 124.858 28.9869C124.534 29.406 124.371 30.0544 124.371 30.9598V32.7842C124.371 33.6893 124.534 34.3381 124.858 34.7435C125.169 35.1623 125.669 35.365 126.344 35.365C127.006 35.365 127.506 35.1623 127.817 34.7435C128.141 34.3381 128.303 33.6893 128.303 32.7842V30.9598ZM139.546 36.3516C139.546 36.5001 139.492 36.6352 139.397 36.7297C139.289 36.8379 139.154 36.8918 139.005 36.8918H137.641C137.479 36.8918 137.33 36.8649 137.195 36.8243C137.046 36.784 136.925 36.6488 136.816 36.4055L133.817 29.8247C133.776 29.7571 133.735 29.7169 133.695 29.7169C133.655 29.7169 133.628 29.7571 133.628 29.8247V36.6216C133.628 36.6891 133.6 36.7567 133.56 36.811C133.506 36.8649 133.438 36.8918 133.371 36.8918H132.222C132.155 36.8918 132.087 36.8649 132.033 36.811C131.979 36.7567 131.952 36.6891 131.952 36.6216V27.3925C131.952 27.244 132.006 27.1088 132.114 27.0007C132.209 26.9061 132.344 26.8522 132.493 26.8522H133.952C134.1 26.8522 134.208 26.8792 134.303 26.9331C134.384 26.987 134.465 27.1088 134.546 27.2846L137.695 34.2299C137.722 34.2975 137.762 34.3381 137.803 34.3381C137.843 34.3381 137.87 34.2975 137.87 34.2166V27.1088C137.87 26.9331 137.952 26.8522 138.127 26.8522H139.289C139.465 26.8522 139.546 26.9331 139.546 27.1088V36.3516Z" fill="#5C8EE6"/>
</g>
<defs>
<clipPath id="clip0_3272_718">
<rect width="140" height="44" fill="white"/>
</clipPath>
</defs>
</svg>
