<?xml version="1.0" encoding="UTF-8" standalone="no"?><!DOCTYPE svg PUBLIC "-//W3C//DTD SVG 1.1//EN" "http://www.w3.org/Graphics/SVG/1.1/DTD/svg11.dtd"><svg width="80px" height="40px" viewBox="0 0 159 40" version="1.1" xmlns="http://www.w3.org/2000/svg" xmlns:xlink="http://www.w3.org/1999/xlink" xml:space="preserve" xmlns:serif="http://www.serif.com/" style="fill-rule:evenodd;clip-rule:evenodd;stroke-linejoin:round;stroke-miterlimit:1.41421;"><g id="мой-мир" serif:id="мой мир"><path id="BG" d="M159,4.8c0,-2.649 -2.151,-4.8 -4.8,-4.8l-149.4,0c-2.649,0 -4.8,2.151 -4.8,4.8l0,30.4c0,2.649 2.151,4.8 4.8,4.8l149.4,0c2.649,0 4.8,-2.151 4.8,-4.8l0,-30.4Z" style="fill:#005ff9;"/><g id="_32_-moj_mir_w" serif:id="32_@moj_mir_w"><g><path d="M47.383,14.133l2.064,0l4.987,6.535l4.987,-6.535l2.064,0l0,12.161l-2.484,0l0,-7.712l-4.567,6.099c0,0 -4.566,-6.099 -4.566,-6.099l0,7.712l-2.485,0l0,-12.161Z" style="fill:#fff;"/><path d="M100.588,14.133l2.064,0l4.987,6.535l4.988,-6.535l2.064,0l0,12.161l-2.485,0l0,-7.712l-4.567,6.099c0,0 -4.566,-6.099 -4.566,-6.099l0,7.712l-2.485,0l0,-12.161Z" style="fill:#fff;"/><path d="M70.114,13.821c3.528,0 6.393,2.864 6.393,6.393c0,3.528 -2.865,6.392 -6.393,6.392c-3.528,0 -6.392,-2.864 -6.392,-6.392c0,-3.529 2.864,-6.393 6.392,-6.393Zm0,2.483c2.158,0 3.909,1.752 3.909,3.91c0,2.157 -1.751,3.909 -3.909,3.909c-2.157,0 -3.909,-1.752 -3.909,-3.909c0,-2.158 1.752,-3.91 3.909,-3.91Z" style="fill:#fff;"/><path d="M88.51,9.544c0,2.188 -1.776,3.965 -3.964,3.965c-2.189,0 -3.965,-1.777 -3.965,-3.965l2.163,0c0,0.995 0.807,1.802 1.802,1.802c0.994,0 1.801,-0.807 1.801,-1.802l2.163,0Z" style="fill:#fff;"/><path d="M80.807,26.294l-2.064,0l0,-12.161l2.484,0l0,8.119l7.057,-8.119l2.064,0l0,12.161l-2.484,0l0,-7.95l-7.057,7.95Z" style="fill:#fff;"/><path d="M119.516,26.294l-2.064,0l0,-12.161l2.484,0l0,8.119l7.057,-8.119l2.064,0l0,12.161l-2.485,0l0,-7.95l-7.056,7.95Z" style="fill:#fff;"/><path d="M131.818,30.58l2.484,-0.004l0,-5.612c0.89,1.008 2.459,1.642 3.934,1.642c3.528,0 6.392,-2.864 6.392,-6.392c0,-3.529 -2.864,-6.393 -6.392,-6.393c-1.475,0 -2.961,0.556 -3.934,1.538l0,-1.226l-2.484,0l0,16.447Zm6.337,-14.204c-2.176,0 -3.887,1.557 -3.887,3.838c0,2.281 1.711,3.851 3.887,3.851c2.175,0 3.829,-1.676 3.829,-3.851c0,-2.176 -1.654,-3.838 -3.829,-3.838Z" style="fill:#fff;"/></g><path d="M30.677,20c0,2.211 -1.799,4.011 -4.01,4.011c-2.212,0 -4.011,-1.8 -4.011,-4.011c0,-2.212 1.799,-4.011 4.011,-4.011c2.211,0 4.01,1.799 4.01,4.011m-4.01,-13.333c-7.352,0 -13.334,5.981 -13.334,13.333c0,7.352 5.982,13.333 13.334,13.333c2.693,0 5.29,-0.802 7.51,-2.319l0.039,-0.026l-1.797,-2.088l-0.03,0.019c-1.709,1.1 -3.688,1.681 -5.722,1.681c-5.845,0 -10.6,-4.755 -10.6,-10.6c0,-5.845 4.755,-10.6 10.6,-10.6c5.844,0 10.599,4.755 10.599,10.6c0,0.757 -0.084,1.524 -0.249,2.279c-0.336,1.375 -1.298,1.797 -2.022,1.741c-0.727,-0.059 -1.578,-0.578 -1.584,-1.846l0,-1.034l0,-1.14c0,-3.719 -3.026,-6.744 -6.744,-6.744c-3.719,0 -6.745,3.025 -6.745,6.744c0,3.719 3.026,6.744 6.745,6.744c1.806,0 3.501,-0.706 4.778,-1.991c0.742,1.156 1.954,1.881 3.331,1.992c0.118,0.009 0.239,0.014 0.359,0.014c0.97,0 1.931,-0.324 2.706,-0.913c0.799,-0.606 1.396,-1.484 1.725,-2.538c0.054,-0.17 0.15,-0.561 0.15,-0.563l0.003,-0.014c0.194,-0.846 0.281,-1.69 0.281,-2.731c0,-7.352 -5.981,-13.333 -13.333,-13.333" style="fill:#ff9e00;fill-rule:nonzero;"/></g></g></svg>