<svg width="12" height="12" viewBox="0 0 12 12" fill="none" xmlns="http://www.w3.org/2000/svg">
<path d="M10.9222 1.94626L6.42 0.0703468C6.2793 0.0234489 6.13861 0 5.99792 0C5.83377 0 5.69308 0.0234489 5.55239 0.0703468L1.05019 1.94626C0.628108 2.13385 0.370169 2.53249 0.370169 2.97802C0.370169 7.64436 3.04335 10.8569 5.55239 11.9121C5.83377 12.0293 6.13861 12.0293 6.42 11.9121C8.43661 11.0679 11.6257 8.18368 11.6257 2.97802C11.6257 2.53249 11.3443 2.13385 10.9222 1.94626ZM9.16169 4.72512L5.50549 8.14349C5.3648 8.30763 5.10686 8.30763 4.96616 8.14349L2.95625 6.37141C2.81556 6.23072 2.81556 5.99623 2.95625 5.85554L3.24099 5.5708C3.38168 5.43011 3.61617 5.43011 3.75687 5.5708L5.30267 6.91226L8.41619 3.97962C8.55689 3.83893 8.79138 3.83893 8.93207 3.97962L9.16169 4.20924C9.30239 4.34994 9.30239 4.58443 9.16169 4.72512Z" fill="#828A99"/>
</svg>
