<svg width="1050" height="161" viewBox="0 0 1050 161" fill="none" xmlns="http://www.w3.org/2000/svg">
<path d="M13.28 0.439999C17.6 0.439999 20.7733 1.72 22.8 4.28C24.88 6.84 25.92 10.2533 25.92 14.52V19.56H20V14.2C20 11.64 19.4667 9.66667 18.4 8.28C17.3867 6.84 15.7333 6.12 13.44 6.12C11.2 6.12 9.54667 6.84 8.48 8.28C7.41333 9.66667 6.88 11.64 6.88 14.2V43.8C6.88 46.36 7.41333 48.36 8.48 49.8C9.54667 51.1867 11.2 51.88 13.44 51.88C15.7333 51.88 17.3867 51.1867 18.4 49.8C19.4667 48.36 20 46.36 20 43.8V36.52H25.92V43.48C25.92 47.7467 24.88 51.16 22.8 53.72C20.7733 56.28 17.6 57.56 13.28 57.56C9.01333 57.56 5.84 56.28 3.76 53.72C1.73333 51.16 0.72 47.7467 0.72 43.48V14.52C0.72 12.3867 0.96 10.4667 1.44 8.76C1.97333 7 2.74667 5.50666 3.76 4.28C4.82667 3.05333 6.13333 2.12 7.68 1.48C9.28 0.786666 11.1467 0.439999 13.28 0.439999ZM31.1106 14.52C31.1106 10.2 32.1506 6.78666 34.2306 4.28C36.364 1.72 39.5906 0.439999 43.9106 0.439999C48.2306 0.439999 51.4573 1.72 53.5906 4.28C55.724 6.78666 56.7906 10.2 56.7906 14.52V43.48C56.7906 47.7467 55.724 51.16 53.5906 53.72C51.4573 56.28 48.2306 57.56 43.9106 57.56C39.5906 57.56 36.364 56.28 34.2306 53.72C32.1506 51.16 31.1106 47.7467 31.1106 43.48V14.52ZM37.2706 43.8C37.2706 46.36 37.804 48.36 38.8706 49.8C39.9906 51.1867 41.6706 51.88 43.9106 51.88C46.204 51.88 47.884 51.1867 48.9506 49.8C50.0173 48.36 50.5506 46.36 50.5506 43.8V14.2C50.5506 11.64 50.0173 9.66667 48.9506 8.28C47.884 6.84 46.204 6.12 43.9106 6.12C41.6706 6.12 39.9906 6.84 38.8706 8.28C37.804 9.66667 37.2706 11.64 37.2706 14.2V43.8ZM75.2444 0.999996C79.6177 0.999996 82.7377 2.04 84.6044 4.12C86.471 6.14666 87.4044 9.24 87.4044 13.4V16.04C87.4044 19.0267 86.9244 21.4533 85.9644 23.32C85.0044 25.1333 83.2977 26.4133 80.8444 27.16C83.5644 27.9067 85.4844 29.32 86.6044 31.4C87.7777 33.48 88.3644 36.0667 88.3644 39.16V43.88C88.3644 48.0933 87.3244 51.3467 85.2444 53.64C83.1644 55.88 79.9377 57 75.5644 57H62.6844V0.999996H75.2444ZM73.7244 24.76C76.231 24.76 78.0977 24.2533 79.3244 23.24C80.6044 22.2267 81.2444 20.2533 81.2444 17.32V14.04C81.2444 11.5333 80.7644 9.69333 79.8044 8.52C78.8977 7.29333 77.3244 6.68 75.0844 6.68H68.9244V24.76H73.7244ZM75.5644 51.32C79.991 51.32 82.2044 48.7867 82.2044 43.72V38.76C82.2044 35.6133 81.5644 33.4533 80.2844 32.28C79.0577 31.0533 77.0844 30.44 74.3644 30.44H68.9244V51.32H75.5644ZM106.253 0.999996C110.679 0.999996 113.879 2.22666 115.853 4.68C117.826 7.08 118.813 10.4133 118.813 14.68V21.4C118.813 25.88 117.746 29.2667 115.613 31.56C113.533 33.8 110.253 34.92 105.773 34.92H100.253V57H94.0125V0.999996H106.253ZM105.773 29.32C108.119 29.32 109.853 28.76 110.973 27.64C112.093 26.4667 112.653 24.52 112.653 21.8V14.36C112.653 11.8 112.146 9.88 111.133 8.6C110.173 7.32 108.546 6.68 106.253 6.68H100.253V29.32H105.773ZM143.62 25.8V31.4H129.94V51.32H146.74V57H123.7V0.999996H146.74V6.68H129.94V25.8H143.62ZM173.168 56.92H167.168L157.888 12.36V57H152.448V0.999996H161.168L170.368 45.72L179.248 0.999996H187.968V57H182.048V11.96L173.168 56.92ZM214.323 25.8V31.4H200.643V51.32H217.443V57H194.403V0.999996H217.443V6.68H200.643V25.8H214.323ZM229.471 31.8V57H223.231V0.999996H229.471V26.2H243.231V0.999996H249.471V57H243.231V31.8H229.471ZM262.128 31.8V57H255.888V0.999996H262.128V26.2H275.888V0.999996H282.128V57H275.888V31.8H262.128ZM294.864 45.72L292.704 57H286.944L297.664 0.999996H306.704L317.424 57H311.184L309.024 45.72H294.864ZM295.664 40.36H308.144L301.824 8.04L295.664 40.36ZM336.774 33.08C334.16 33.08 332.134 33.6933 330.694 34.92C329.307 36.0933 328.614 38.2533 328.614 41.4V50.2C328.614 52.0667 328.534 53.48 328.374 54.44C328.214 55.3467 327.947 56.2 327.574 57H321.254C321.734 56.04 322.027 55 322.134 53.88C322.294 52.7067 322.374 51.5067 322.374 50.28V41.56C322.374 38.52 322.88 36.0133 323.894 34.04C324.96 32.0133 326.774 30.6267 329.334 29.88C324.747 28.3867 322.454 24.5467 322.454 18.36V13.8C322.454 9.64 323.414 6.46666 325.334 4.28C327.307 2.09333 330.507 0.999996 334.934 0.999996H347.414V57H341.174V33.08H336.774ZM335.094 6.68C332.747 6.68 331.067 7.32 330.054 8.6C329.094 9.88 328.614 11.8 328.614 14.36V19.72C328.614 22.76 329.307 24.8133 330.694 25.88C332.08 26.8933 334 27.4 336.454 27.4H341.174V6.68H335.094ZM386.84 56.92H380.84L371.56 12.36V57H366.12V0.999996H374.84L384.04 45.72L392.92 0.999996H401.64V57H395.72V11.96L386.84 56.92ZM427.995 25.8V31.4H414.315V51.32H431.115V57H408.075V0.999996H431.115V6.68H414.315V25.8H427.995ZM445.463 57V6.68H435.143V0.999996H462.023V6.68H451.703V57H445.463ZM466.189 14.52C466.189 10.2 467.229 6.78666 469.309 4.28C471.442 1.72 474.669 0.439999 478.989 0.439999C483.309 0.439999 486.535 1.72 488.669 4.28C490.802 6.78666 491.869 10.2 491.869 14.52V43.48C491.869 47.7467 490.802 51.16 488.669 53.72C486.535 56.28 483.309 57.56 478.989 57.56C474.669 57.56 471.442 56.28 469.309 53.72C467.229 51.16 466.189 47.7467 466.189 43.48V14.52ZM472.349 43.8C472.349 46.36 472.882 48.36 473.949 49.8C475.069 51.1867 476.749 51.88 478.989 51.88C481.282 51.88 482.962 51.1867 484.029 49.8C485.095 48.36 485.629 46.36 485.629 43.8V14.2C485.629 11.64 485.095 9.66667 484.029 8.28C482.962 6.84 481.282 6.12 478.989 6.12C476.749 6.12 475.069 6.84 473.949 8.28C472.882 9.66667 472.349 11.64 472.349 14.2V43.8ZM525.363 64.68V57H502.483V64.68H496.483V51.48H500.083C501.043 50.4133 501.656 49.2133 501.923 47.88C502.243 46.5467 502.456 45.0267 502.563 43.32L504.723 0.999996H527.203V51.48H531.443V64.68H525.363ZM508.643 43.24C508.536 45.2667 508.296 46.92 507.923 48.2C507.603 49.48 506.989 50.5733 506.083 51.48H520.883V6.68H510.483L508.643 43.24ZM536.423 14.52C536.423 10.2 537.463 6.78666 539.543 4.28C541.676 1.72 544.903 0.439999 549.223 0.439999C553.543 0.439999 556.77 1.72 558.903 4.28C561.036 6.78666 562.103 10.2 562.103 14.52V43.48C562.103 47.7467 561.036 51.16 558.903 53.72C556.77 56.28 553.543 57.56 549.223 57.56C544.903 57.56 541.676 56.28 539.543 53.72C537.463 51.16 536.423 47.7467 536.423 43.48V14.52ZM542.583 43.8C542.583 46.36 543.116 48.36 544.183 49.8C545.303 51.1867 546.983 51.88 549.223 51.88C551.516 51.88 553.196 51.1867 554.263 49.8C555.33 48.36 555.863 46.36 555.863 43.8V14.2C555.863 11.64 555.33 9.66667 554.263 8.28C553.196 6.84 551.516 6.12 549.223 6.12C546.983 6.12 545.303 6.84 544.183 8.28C543.116 9.66667 542.583 11.64 542.583 14.2V43.8ZM579.917 6.68L578.637 43.08C578.53 45.32 578.29 47.2933 577.917 49C577.544 50.7067 576.93 52.1733 576.077 53.4C575.224 54.5733 574.077 55.48 572.637 56.12C571.25 56.76 569.49 57.08 567.357 57.08H566.317V51.4C567.597 51.4 568.637 51.24 569.437 50.92C570.237 50.6 570.85 50.12 571.277 49.48C571.757 48.7867 572.077 47.9333 572.237 46.92C572.397 45.9067 572.504 44.7333 572.557 43.4L574.077 0.999996H596.877V57H590.637V6.68H579.917ZM603.064 14.52C603.064 10.2 604.104 6.78666 606.184 4.28C608.317 1.72 611.544 0.439999 615.864 0.439999C620.184 0.439999 623.41 1.72 625.544 4.28C627.677 6.78666 628.744 10.2 628.744 14.52V43.48C628.744 47.7467 627.677 51.16 625.544 53.72C623.41 56.28 620.184 57.56 615.864 57.56C611.544 57.56 608.317 56.28 606.184 53.72C604.104 51.16 603.064 47.7467 603.064 43.48V14.52ZM609.224 43.8C609.224 46.36 609.757 48.36 610.824 49.8C611.944 51.1867 613.624 51.88 615.864 51.88C618.157 51.88 619.837 51.1867 620.904 49.8C621.97 48.36 622.504 46.36 622.504 43.8V14.2C622.504 11.64 621.97 9.66667 620.904 8.28C619.837 6.84 618.157 6.12 615.864 6.12C613.624 6.12 611.944 6.84 610.824 8.28C609.757 9.66667 609.224 11.64 609.224 14.2V43.8ZM640.878 6.68V57H634.718V0.999996H657.038V6.68H640.878ZM677.873 31.16L669.633 57H663.153V0.999996H668.673V42.76L673.633 27.32L682.593 0.999996H689.553V57H683.953V12.44L677.873 31.16ZM710.368 33.08C707.754 33.08 705.728 33.6933 704.288 34.92C702.901 36.0933 702.208 38.2533 702.208 41.4V50.2C702.208 52.0667 702.128 53.48 701.968 54.44C701.808 55.3467 701.541 56.2 701.168 57H694.848C695.328 56.04 695.621 55 695.728 53.88C695.888 52.7067 695.968 51.5067 695.968 50.28V41.56C695.968 38.52 696.474 36.0133 697.488 34.04C698.554 32.0133 700.368 30.6267 702.928 29.88C698.341 28.3867 696.048 24.5467 696.048 18.36V13.8C696.048 9.64 697.008 6.46666 698.928 4.28C700.901 2.09333 704.101 0.999996 708.528 0.999996H721.008V57H714.768V33.08H710.368ZM708.688 6.68C706.341 6.68 704.661 7.32 703.648 8.6C702.688 9.88 702.208 11.8 702.208 14.36V19.72C702.208 22.76 702.901 24.8133 704.288 25.88C705.674 26.8933 707.594 27.4 710.048 27.4H714.768V6.68H708.688ZM752.034 0.999996C756.46 0.999996 759.66 2.22666 761.634 4.68C763.607 7.08 764.594 10.4133 764.594 14.68V21.4C764.594 25.88 763.527 29.2667 761.394 31.56C759.314 33.8 756.034 34.92 751.554 34.92H746.034V57H739.794V0.999996H752.034ZM751.554 29.32C753.9 29.32 755.634 28.76 756.754 27.64C757.874 26.4667 758.434 24.52 758.434 21.8V14.36C758.434 11.8 757.927 9.88 756.914 8.6C755.954 7.32 754.327 6.68 752.034 6.68H746.034V29.32H751.554ZM775.801 45.72L773.641 57H767.881L778.601 0.999996H787.641L798.361 57H792.121L789.961 45.72H775.801ZM776.601 40.36H789.081L782.761 8.04L776.601 40.36ZM815.471 0.439999C819.791 0.439999 822.965 1.72 824.991 4.28C827.071 6.84 828.111 10.2533 828.111 14.52V15.96C828.111 18.84 827.525 21.2933 826.351 23.32C825.231 25.2933 823.525 26.7067 821.231 27.56C823.631 28.36 825.365 29.7733 826.431 31.8C827.551 33.8267 828.111 36.2533 828.111 39.08V43.48C828.111 47.7467 827.071 51.16 824.991 53.72C822.965 56.28 819.791 57.56 815.471 57.56C811.205 57.56 808.031 56.28 805.951 53.72C803.925 51.16 802.911 47.7467 802.911 43.48V38.04H808.751V43.8C808.751 46.36 809.285 48.36 810.351 49.8C811.418 51.1867 813.071 51.88 815.311 51.88C817.605 51.88 819.258 51.16 820.271 49.72C821.338 48.28 821.871 46.1467 821.871 43.32V38.92C821.871 33.3733 819.471 30.6 814.671 30.6H812.031V25H814.991C817.071 25 818.725 24.3333 819.951 23C821.231 21.6667 821.871 19.7733 821.871 17.32V14.76C821.871 11.88 821.338 9.72 820.271 8.28C819.258 6.84 817.605 6.12 815.311 6.12C813.071 6.12 811.418 6.84 810.351 8.28C809.285 9.66667 808.751 11.64 808.751 14.2V17.96H802.991V14.44C802.991 10.12 803.978 6.70666 805.951 4.2C807.978 1.69333 811.151 0.439999 815.471 0.439999ZM846.409 0.999996C850.835 0.999996 854.035 2.22666 856.009 4.68C857.982 7.08 858.969 10.4133 858.969 14.68V21.4C858.969 25.88 857.902 29.2667 855.769 31.56C853.689 33.8 850.409 34.92 845.929 34.92H840.409V57H834.169V0.999996H846.409ZM845.929 29.32C848.275 29.32 850.009 28.76 851.129 27.64C852.249 26.4667 852.809 24.52 852.809 21.8V14.36C852.809 11.8 852.302 9.88 851.289 8.6C850.329 7.32 848.702 6.68 846.409 6.68H840.409V29.32H845.929ZM870.176 45.72L868.016 57H862.256L872.976 0.999996H882.016L892.736 57H886.496L884.336 45.72H870.176ZM870.976 40.36H883.456L877.136 8.04L870.976 40.36ZM910.406 24.12C914.78 24.12 918.06 25.1867 920.246 27.32C922.486 29.4 923.606 32.7067 923.606 37.24V43.4C923.606 47.7733 922.566 51.1333 920.486 53.48C918.406 55.8267 915.153 57 910.726 57H897.686V0.999996H921.286V6.68H903.846V24.12H910.406ZM910.726 51.32C913.02 51.32 914.7 50.7333 915.766 49.56C916.833 48.3333 917.366 46.4133 917.366 43.8V36.84C917.366 34.12 916.78 32.2533 915.606 31.24C914.433 30.2267 912.7 29.72 910.406 29.72H903.846V51.32H910.726ZM929.236 14.52C929.236 10.2 930.276 6.78666 932.356 4.28C934.489 1.72 937.716 0.439999 942.036 0.439999C946.356 0.439999 949.582 1.72 951.716 4.28C953.849 6.78666 954.916 10.2 954.916 14.52V43.48C954.916 47.7467 953.849 51.16 951.716 53.72C949.582 56.28 946.356 57.56 942.036 57.56C937.716 57.56 934.489 56.28 932.356 53.72C930.276 51.16 929.236 47.7467 929.236 43.48V14.52ZM935.396 43.8C935.396 46.36 935.929 48.36 936.996 49.8C938.116 51.1867 939.796 51.88 942.036 51.88C944.329 51.88 946.009 51.1867 947.076 49.8C948.142 48.36 948.676 46.36 948.676 43.8V14.2C948.676 11.64 948.142 9.66667 947.076 8.28C946.009 6.84 944.329 6.12 942.036 6.12C939.796 6.12 938.116 6.84 936.996 8.28C935.929 9.66667 935.396 11.64 935.396 14.2V43.8ZM969.369 57V6.68H959.049V0.999996H985.929V6.68H975.609V57H969.369ZM1000.1 32.68L996.815 38.2V57H990.575V0.999996H996.815V28.04L1011.7 0.999996H1018.02L1003.86 26.52L1018.5 57H1012.1L1000.1 32.68ZM1038.03 31.16L1029.79 57H1023.31V0.999996H1028.83V42.76L1033.79 27.32L1042.75 0.999996H1049.71V57H1044.11V12.44L1038.03 31.16ZM0.72 110.52C0.72 106.2 1.76 102.787 3.84 100.28C5.97333 97.72 9.2 96.44 13.52 96.44C17.84 96.44 21.0667 97.72 23.2 100.28C25.3333 102.787 26.4 106.2 26.4 110.52V139.48C26.4 143.747 25.3333 147.16 23.2 149.72C21.0667 152.28 17.84 153.56 13.52 153.56C9.2 153.56 5.97333 152.28 3.84 149.72C1.76 147.16 0.72 143.747 0.72 139.48V110.52ZM6.88 139.8C6.88 142.36 7.41333 144.36 8.48 145.8C9.6 147.187 11.28 147.88 13.52 147.88C15.8133 147.88 17.4933 147.187 18.56 145.8C19.6267 144.36 20.16 142.36 20.16 139.8V110.2C20.16 107.64 19.6267 105.667 18.56 104.28C17.4933 102.84 15.8133 102.12 13.52 102.12C11.28 102.12 9.6 102.84 8.48 104.28C7.41333 105.667 6.88 107.64 6.88 110.2V139.8ZM59.8938 160.68V153H37.0138V160.68H31.0138V147.48H34.6138C35.5738 146.413 36.1871 145.213 36.4538 143.88C36.7738 142.547 36.9871 141.027 37.0938 139.32L39.2538 97H61.7338V147.48H65.9738V160.68H59.8938ZM43.1738 139.24C43.0671 141.267 42.8271 142.92 42.4538 144.2C42.1338 145.48 41.5204 146.573 40.6138 147.48H55.4138V102.68H45.0138L43.1738 139.24ZM88.2344 140.68C87.7544 142.76 87.1677 144.6 86.4744 146.2C85.8344 147.8 84.9544 149.133 83.8344 150.2C82.7144 151.267 81.301 152.04 79.5944 152.52C77.941 153 75.8344 153.187 73.2744 153.08V147.48C75.6744 147.587 77.461 147.24 78.6344 146.44C79.861 145.587 80.741 144.093 81.2744 141.96L82.5544 138.28L69.6744 97H75.9144L81.5944 116.44L85.4344 130.52L88.7144 116.44L93.7544 97H100.234L88.2344 140.68ZM118.714 128.84L109.354 153H103.434L114.714 124.12L104.154 97H110.634L119.274 119.4L127.994 97H133.834L123.354 124.12L134.554 153H127.994L118.714 128.84ZM139.079 110.52C139.079 106.2 140.119 102.787 142.199 100.28C144.333 97.72 147.559 96.44 151.879 96.44C156.199 96.44 159.426 97.72 161.559 100.28C163.693 102.787 164.759 106.2 164.759 110.52V139.48C164.759 143.747 163.693 147.16 161.559 149.72C159.426 152.28 156.199 153.56 151.879 153.56C147.559 153.56 144.333 152.28 142.199 149.72C140.119 147.16 139.079 143.747 139.079 139.48V110.52ZM145.239 139.8C145.239 142.36 145.773 144.36 146.839 145.8C147.959 147.187 149.639 147.88 151.879 147.88C154.173 147.88 155.853 147.187 156.919 145.8C157.986 144.36 158.519 142.36 158.519 139.8V110.2C158.519 107.64 157.986 105.667 156.919 104.28C155.853 102.84 154.173 102.12 151.879 102.12C149.639 102.12 147.959 102.84 146.839 104.28C145.773 105.667 145.239 107.64 145.239 110.2V139.8ZM179.213 153V102.68H168.893V97H195.773V102.68H185.453V153H179.213ZM212.979 97C217.352 97 220.472 98.04 222.339 100.12C224.205 102.147 225.139 105.24 225.139 109.4V112.04C225.139 115.027 224.659 117.453 223.699 119.32C222.739 121.133 221.032 122.413 218.579 123.16C221.299 123.907 223.219 125.32 224.339 127.4C225.512 129.48 226.099 132.067 226.099 135.16V139.88C226.099 144.093 225.059 147.347 222.979 149.64C220.899 151.88 217.672 153 213.299 153H200.419V97H212.979ZM211.459 120.76C213.965 120.76 215.832 120.253 217.059 119.24C218.339 118.227 218.979 116.253 218.979 113.32V110.04C218.979 107.533 218.499 105.693 217.539 104.52C216.632 103.293 215.059 102.68 212.819 102.68H206.659V120.76H211.459ZM213.299 147.32C217.725 147.32 219.939 144.787 219.939 139.72V134.76C219.939 131.613 219.299 129.453 218.019 128.28C216.792 127.053 214.819 126.44 212.099 126.44H206.659V147.32H213.299ZM231.267 110.52C231.267 106.2 232.307 102.787 234.387 100.28C236.52 97.72 239.747 96.44 244.067 96.44C248.387 96.44 251.614 97.72 253.747 100.28C255.88 102.787 256.947 106.2 256.947 110.52V139.48C256.947 143.747 255.88 147.16 253.747 149.72C251.614 152.28 248.387 153.56 244.067 153.56C239.747 153.56 236.52 152.28 234.387 149.72C232.307 147.16 231.267 143.747 231.267 139.48V110.52ZM237.427 139.8C237.427 142.36 237.96 144.36 239.027 145.8C240.147 147.187 241.827 147.88 244.067 147.88C246.36 147.88 248.04 147.187 249.107 145.8C250.174 144.36 250.707 142.36 250.707 139.8V110.2C250.707 107.64 250.174 105.667 249.107 104.28C248.04 102.84 246.36 102.12 244.067 102.12C241.827 102.12 240.147 102.84 239.027 104.28C237.96 105.667 237.427 107.64 237.427 110.2V139.8ZM275.081 97C279.507 97 282.707 98.2267 284.681 100.68C286.654 103.08 287.641 106.413 287.641 110.68V117.4C287.641 121.88 286.574 125.267 284.441 127.56C282.361 129.8 279.081 130.92 274.601 130.92H269.081V153H262.841V97H275.081ZM274.601 125.32C276.947 125.32 278.681 124.76 279.801 123.64C280.921 122.467 281.481 120.52 281.481 117.8V110.36C281.481 107.8 280.974 105.88 279.961 104.6C279.001 103.32 277.374 102.68 275.081 102.68H269.081V125.32H274.601ZM307.248 127.16L299.008 153H292.528V97H298.048V138.76L303.008 123.32L311.968 97H318.928V153H313.328V108.44L307.248 127.16ZM337.183 102.68L335.903 139.08C335.796 141.32 335.556 143.293 335.183 145C334.809 146.707 334.196 148.173 333.343 149.4C332.489 150.573 331.343 151.48 329.903 152.12C328.516 152.76 326.756 153.08 324.623 153.08H323.583V147.4C324.863 147.4 325.903 147.24 326.703 146.92C327.503 146.6 328.116 146.12 328.543 145.48C329.023 144.787 329.343 143.933 329.503 142.92C329.663 141.907 329.769 140.733 329.823 139.4L331.343 97H354.143V153H347.903V102.68H337.183ZM367.129 141.72L364.969 153H359.209L369.929 97H378.969L389.689 153H383.449L381.289 141.72H367.129ZM367.929 136.36H380.409L374.089 104.04L367.929 136.36ZM419.541 97C423.915 97 427.035 98.04 428.901 100.12C430.768 102.147 431.701 105.24 431.701 109.4V112.04C431.701 115.027 431.221 117.453 430.261 119.32C429.301 121.133 427.595 122.413 425.141 123.16C427.861 123.907 429.781 125.32 430.901 127.4C432.075 129.48 432.661 132.067 432.661 135.16V139.88C432.661 144.093 431.621 147.347 429.541 149.64C427.461 151.88 424.235 153 419.861 153H406.981V97H419.541ZM418.021 120.76C420.528 120.76 422.395 120.253 423.621 119.24C424.901 118.227 425.541 116.253 425.541 113.32V110.04C425.541 107.533 425.061 105.693 424.101 104.52C423.195 103.293 421.621 102.68 419.381 102.68H413.221V120.76H418.021ZM419.861 147.32C424.288 147.32 426.501 144.787 426.501 139.72V134.76C426.501 131.613 425.861 129.453 424.581 128.28C423.355 127.053 421.381 126.44 418.661 126.44H413.221V147.32H419.861ZM450.389 96.44C454.709 96.44 457.883 97.72 459.909 100.28C461.989 102.84 463.029 106.253 463.029 110.52V115.56H457.109V110.2C457.109 107.64 456.576 105.667 455.509 104.28C454.496 102.84 452.843 102.12 450.549 102.12C448.309 102.12 446.656 102.84 445.589 104.28C444.523 105.667 443.989 107.64 443.989 110.2V139.8C443.989 142.36 444.523 144.36 445.589 145.8C446.656 147.187 448.309 147.88 450.549 147.88C452.843 147.88 454.496 147.187 455.509 145.8C456.576 144.36 457.109 142.36 457.109 139.8V132.52H463.029V139.48C463.029 143.747 461.989 147.16 459.909 149.72C457.883 152.28 454.709 153.56 450.389 153.56C446.123 153.56 442.949 152.28 440.869 149.72C438.843 147.16 437.829 143.747 437.829 139.48V110.52C437.829 108.387 438.069 106.467 438.549 104.76C439.083 103 439.856 101.507 440.869 100.28C441.936 99.0533 443.243 98.12 444.789 97.48C446.389 96.7867 448.256 96.44 450.389 96.44ZM488.62 121.8V127.4H474.94V147.32H491.74V153H468.7V97H491.74V102.68H474.94V121.8H488.62ZM511.448 128.84L502.088 153H496.168L507.448 124.12L496.888 97H503.368L512.008 119.4L520.728 97H526.568L516.088 124.12L527.288 153H520.728L511.448 128.84ZM550.956 102.68V153H544.716V97H570.956V153H564.716V102.68H550.956ZM589.612 97C594.039 97 597.239 98.2267 599.212 100.68C601.185 103.08 602.172 106.413 602.172 110.68V117.4C602.172 121.88 601.105 125.267 598.972 127.56C596.892 129.8 593.612 130.92 589.132 130.92H583.612V153H577.372V97H589.612ZM589.132 125.32C591.479 125.32 593.212 124.76 594.332 123.64C595.452 122.467 596.012 120.52 596.012 117.8V110.36C596.012 107.8 595.505 105.88 594.492 104.6C593.532 103.32 591.905 102.68 589.612 102.68H583.612V125.32H589.132ZM621.779 127.16L613.539 153H607.059V97H612.579V138.76L617.539 123.32L626.499 97H633.459V153H627.859V108.44L621.779 127.16ZM659.234 128.2C658.22 129.64 656.94 130.733 655.394 131.48C653.847 132.227 652.22 132.6 650.514 132.6C648.647 132.6 646.994 132.28 645.554 131.64C644.167 130.947 643.02 130.013 642.114 128.84C641.207 127.613 640.514 126.2 640.034 124.6C639.607 122.947 639.394 121.187 639.394 119.32V97H645.634V118.84C645.634 121.24 646.22 123.187 647.394 124.68C648.567 126.173 650.274 126.92 652.514 126.92C656.354 126.92 658.594 124.733 659.234 120.36V97H665.394V153H659.234V128.2ZM678.223 141.72L676.063 153H670.303L681.023 97H690.063L700.783 153H694.543L692.383 141.72H678.223ZM679.023 136.36H691.503L685.183 104.04L679.023 136.36ZM717.733 96.44C722.053 96.44 725.226 97.72 727.253 100.28C729.333 102.84 730.373 106.253 730.373 110.52V115.56H724.453V110.2C724.453 107.64 723.92 105.667 722.853 104.28C721.84 102.84 720.186 102.12 717.893 102.12C715.653 102.12 714 102.84 712.933 104.28C711.866 105.667 711.333 107.64 711.333 110.2V139.8C711.333 142.36 711.866 144.36 712.933 145.8C714 147.187 715.653 147.88 717.893 147.88C720.186 147.88 721.84 147.187 722.853 145.8C723.92 144.36 724.453 142.36 724.453 139.8V132.52H730.373V139.48C730.373 143.747 729.333 147.16 727.253 149.72C725.226 152.28 722.053 153.56 717.733 153.56C713.466 153.56 710.293 152.28 708.213 149.72C706.186 147.16 705.173 143.747 705.173 139.48V110.52C705.173 108.387 705.413 106.467 705.893 104.76C706.426 103 707.2 101.507 708.213 100.28C709.28 99.0533 710.586 98.12 712.133 97.48C713.733 96.7867 715.6 96.44 717.733 96.44ZM744.604 153V102.68H734.284V97H761.164V102.68H750.844V153H744.604ZM772.049 127.8V153H765.809V97H772.049V122.2H785.809V97H792.049V153H785.809V127.8H772.049ZM810.226 119.08C814.706 119.08 817.986 120.227 820.066 122.52C822.199 124.76 823.266 128.12 823.266 132.6V139.32C823.266 143.587 822.252 146.947 820.226 149.4C818.252 151.8 815.079 153 810.706 153H798.466V97H804.706V119.08H810.226ZM834.626 97V153H828.466V97H834.626ZM810.706 147.32C812.999 147.32 814.626 146.68 815.586 145.4C816.599 144.12 817.106 142.2 817.106 139.64V132.2C817.106 129.48 816.546 127.56 815.426 126.44C814.306 125.267 812.572 124.68 810.226 124.68H804.706V147.32H810.706ZM854.964 128.84L845.604 153H839.684L850.964 124.12L840.404 97H846.884L855.524 119.4L864.244 97H870.084L859.604 124.12L870.804 153H864.244L854.964 128.84Z" fill="white"/>
</svg>
