<svg width="458" height="49" viewBox="0 0 458 49" fill="none" xmlns="http://www.w3.org/2000/svg">
<path d="M11.84 24.88L4.82 43H0.38L8.84 21.34L0.92 0.999997H5.78L12.26 17.8L18.8 0.999997H23.18L15.32 21.34L23.72 43H18.8L11.84 24.88ZM27.1142 11.14C27.1142 7.9 27.8942 5.34 29.4542 3.46C31.0542 1.54 33.4742 0.579999 36.7142 0.579999C39.9542 0.579999 42.3742 1.54 43.9742 3.46C45.5742 5.34 46.3742 7.9 46.3742 11.14V32.86C46.3742 36.06 45.5742 38.62 43.9742 40.54C42.3742 42.46 39.9542 43.42 36.7142 43.42C33.4742 43.42 31.0542 42.46 29.4542 40.54C27.8942 38.62 27.1142 36.06 27.1142 32.86V11.14ZM31.7342 33.1C31.7342 35.02 32.1342 36.52 32.9342 37.6C33.7742 38.64 35.0342 39.16 36.7142 39.16C38.4342 39.16 39.6942 38.64 40.4942 37.6C41.2942 36.52 41.6942 35.02 41.6942 33.1V10.9C41.6942 8.98 41.2942 7.5 40.4942 6.46C39.6942 5.38 38.4342 4.84 36.7142 4.84C35.0342 4.84 33.7742 5.38 32.9342 6.46C32.1342 7.5 31.7342 8.98 31.7342 10.9V33.1ZM57.2145 43V5.26H49.4745V0.999997H69.6345V5.26H61.8945V43H57.2145ZM84.1588 23.62L77.9788 43H73.1188V0.999997H77.2588V32.32L80.9788 20.74L87.6988 0.999997H92.9188V43H88.7188V9.58L84.1588 23.62ZM104.09 43V5.26H96.3495V0.999997H116.51V5.26H108.77V43H104.09ZM134.934 19.6V23.8H124.674V38.74H137.274V43H119.994V0.999997H137.274V5.26H124.674V19.6H134.934ZM159.991 0.579999C163.231 0.579999 165.611 1.54 167.131 3.46C168.691 5.38 169.471 7.94 169.471 11.14V14.92H165.031V10.9C165.031 8.98 164.631 7.5 163.831 6.46C163.071 5.38 161.831 4.84 160.111 4.84C158.431 4.84 157.191 5.38 156.391 6.46C155.591 7.5 155.191 8.98 155.191 10.9V33.1C155.191 35.02 155.591 36.52 156.391 37.6C157.191 38.64 158.431 39.16 160.111 39.16C161.831 39.16 163.071 38.64 163.831 37.6C164.631 36.52 165.031 35.02 165.031 33.1V27.64H169.471V32.86C169.471 36.06 168.691 38.62 167.131 40.54C165.611 42.46 163.231 43.42 159.991 43.42C156.791 43.42 154.411 42.46 152.851 40.54C151.331 38.62 150.571 36.06 150.571 32.86V11.14C150.571 9.54 150.751 8.1 151.111 6.82C151.511 5.5 152.091 4.38 152.851 3.46C153.651 2.54 154.631 1.84 155.791 1.36C156.991 0.839999 158.391 0.579999 159.991 0.579999ZM173.364 11.14C173.364 7.9 174.144 5.34 175.704 3.46C177.304 1.54 179.724 0.579999 182.964 0.579999C186.204 0.579999 188.624 1.54 190.224 3.46C191.824 5.34 192.624 7.9 192.624 11.14V32.86C192.624 36.06 191.824 38.62 190.224 40.54C188.624 42.46 186.204 43.42 182.964 43.42C179.724 43.42 177.304 42.46 175.704 40.54C174.144 38.62 173.364 36.06 173.364 32.86V11.14ZM177.984 33.1C177.984 35.02 178.384 36.52 179.184 37.6C180.024 38.64 181.284 39.16 182.964 39.16C184.684 39.16 185.944 38.64 186.744 37.6C187.544 36.52 187.944 35.02 187.944 33.1V10.9C187.944 8.98 187.544 7.5 186.744 6.46C185.944 5.38 184.684 4.84 182.964 4.84C181.284 4.84 180.024 5.38 179.184 6.46C178.384 7.5 177.984 8.98 177.984 10.9V33.1ZM203.465 43V5.26H195.725V0.999997H215.885V5.26H208.145V43H203.465ZM228.549 0.999997C231.869 0.999997 234.269 1.92 235.749 3.76C237.229 5.56 237.969 8.06 237.969 11.26V16.3C237.969 19.66 237.169 22.2 235.569 23.92C234.009 25.6 231.549 26.44 228.189 26.44H224.049V43H219.369V0.999997H228.549ZM228.189 22.24C229.949 22.24 231.249 21.82 232.089 20.98C232.929 20.1 233.349 18.64 233.349 16.6V11.02C233.349 9.1 232.969 7.66 232.209 6.7C231.489 5.74 230.269 5.26 228.549 5.26H224.049V22.24H228.189ZM254.234 33.76C253.874 35.32 253.434 36.7 252.914 37.9C252.434 39.1 251.774 40.1 250.934 40.9C250.094 41.7 249.034 42.28 247.754 42.64C246.514 43 244.934 43.14 243.014 43.06V38.86C244.814 38.94 246.154 38.68 247.034 38.08C247.954 37.44 248.614 36.32 249.014 34.72L249.974 31.96L240.314 0.999997H244.994L249.254 15.58L252.134 26.14L254.594 15.58L258.374 0.999997H263.234L254.234 33.76ZM287.354 48.76V43H270.194V48.76H265.694V38.86H268.394C269.114 38.06 269.574 37.16 269.774 36.16C270.014 35.16 270.174 34.02 270.254 32.74L271.874 0.999997H288.734V38.86H291.914V48.76H287.354ZM274.814 32.68C274.734 34.2 274.554 35.44 274.274 36.4C274.034 37.36 273.574 38.18 272.894 38.86H283.994V5.26H276.194L274.814 32.68ZM300.689 24.1V43H296.009V0.999997H300.689V19.9H311.009V0.999997H315.689V43H311.009V24.1H300.689ZM331.542 23.62L325.362 43H320.502V0.999997H324.642V32.32L328.362 20.74L335.082 0.999997H340.302V43H336.102V9.58L331.542 23.62ZM359.632 24.4C358.872 25.48 357.912 26.3 356.752 26.86C355.592 27.42 354.372 27.7 353.092 27.7C351.692 27.7 350.452 27.46 349.372 26.98C348.332 26.46 347.472 25.76 346.792 24.88C346.112 23.96 345.592 22.9 345.232 21.7C344.912 20.46 344.752 19.14 344.752 17.74V0.999997H349.432V17.38C349.432 19.18 349.872 20.64 350.752 21.76C351.632 22.88 352.912 23.44 354.592 23.44C357.472 23.44 359.152 21.8 359.632 18.52V0.999997H364.252V43H359.632V24.4ZM373.874 34.54L372.254 43H367.934L375.974 0.999997H382.754L390.794 43H386.114L384.494 34.54H373.874ZM374.474 30.52H383.834L379.094 6.28L374.474 30.52ZM400.867 43V5.26H393.127V0.999997H413.287V5.26H405.547V43H400.867ZM425.591 17.56C428.951 17.56 431.411 18.42 432.971 20.14C434.571 21.82 435.371 24.34 435.371 27.7V32.74C435.371 35.94 434.611 38.46 433.091 40.3C431.611 42.1 429.231 43 425.951 43H416.771V0.999997H421.451V17.56H425.591ZM425.951 38.74C427.671 38.74 428.891 38.26 429.611 37.3C430.371 36.34 430.751 34.9 430.751 32.98V27.4C430.751 25.36 430.331 23.92 429.491 23.08C428.651 22.2 427.351 21.76 425.591 21.76H421.451V38.74H425.951ZM448.143 0.579999C451.383 0.579999 453.743 1.54 455.223 3.46C456.743 5.38 457.503 7.96 457.503 11.2C457.503 12.88 457.283 14.36 456.843 15.64C456.443 16.92 455.943 18.1 455.343 19.18C454.743 20.22 454.063 21.2 453.303 22.12C452.583 23 451.923 23.9 451.323 24.82C450.723 25.74 450.203 26.74 449.763 27.82C449.363 28.86 449.163 30.04 449.163 31.36C449.163 32.08 449.263 32.84 449.463 33.64H445.263C445.183 33.28 445.103 32.92 445.023 32.56C444.983 32.16 444.963 31.72 444.963 31.24C444.963 29.72 445.143 28.38 445.503 27.22C445.903 26.06 446.403 25 447.003 24.04C447.603 23.08 448.223 22.16 448.863 21.28C449.543 20.4 450.183 19.48 450.783 18.52C451.383 17.52 451.863 16.42 452.223 15.22C452.623 14.02 452.823 12.6 452.823 10.96C452.823 9.04 452.443 7.54 451.683 6.46C450.963 5.34 449.743 4.78 448.023 4.78C446.303 4.78 445.063 5.34 444.303 6.46C443.583 7.58 443.223 9.08 443.223 10.96V14.68H438.843V11.26C438.843 9.66 439.023 8.22 439.383 6.94C439.743 5.62 440.303 4.5 441.063 3.58C441.823 2.62 442.783 1.88 443.943 1.36C445.143 0.839999 446.543 0.579999 448.143 0.579999ZM449.523 37.18V43H445.083V37.18H449.523Z" fill="#292D33"/>
</svg>
